<svg width="19" height="19" viewBox="0 0 19 19" fill="none" xmlns="http://www.w3.org/2000/svg">
<path d="M6.33455 14.6418C5.56896 14.729 5.01707 15.4233 5.10428 16.1897C5.14655 16.5603 5.33075 16.8925 5.62302 17.125C5.87288 17.3237 6.17594 17.4291 6.49022 17.4291C6.54358 17.4291 6.5972 17.4261 6.65097 17.4199C7.41657 17.3328 7.96848 16.6385 7.88128 15.8721C7.79396 15.1066 7.10014 14.5549 6.33455 14.6418ZM6.56692 16.6825C6.39325 16.7023 6.22211 16.6531 6.08499 16.5441C5.94787 16.435 5.86145 16.2793 5.84167 16.1057C5.80074 15.746 6.0595 15.4201 6.41845 15.3793C6.4435 15.3764 6.4684 15.375 6.49304 15.375C6.82153 15.375 7.10574 15.6222 7.14378 15.9561C7.18475 16.3158 6.92599 16.6417 6.56692 16.6825Z" fill="white"/>
<path d="M12.4652 12.8882L10.2236 13.1438C10.02 13.167 9.87373 13.3509 9.89696 13.5545C9.91855 13.7439 10.079 13.8836 10.2652 13.8836C10.2792 13.8836 10.2934 13.8828 10.3077 13.8812L12.5492 13.6256C12.7528 13.6024 12.8991 13.4185 12.8759 13.2149C12.8526 13.0113 12.6688 12.8648 12.4652 12.8882Z" fill="white"/>
<path d="M13.3506 16.041C13.1456 16.041 12.9795 16.2072 12.9795 16.4121C12.9795 16.6171 13.1456 16.7832 13.3506 16.7832H13.3527C13.5577 16.7832 13.7228 16.6171 13.7228 16.4121C13.7228 16.2072 13.5555 16.041 13.3506 16.041Z" fill="white"/>
<path fill-rule="evenodd" clip-rule="evenodd" d="M18.8608 14.9543C18.7858 14.2993 18.192 13.8271 17.5371 13.902L17.3735 13.9207L16.7034 8.03938C16.6923 7.9416 16.6428 7.85224 16.5658 7.79097C16.4887 7.72971 16.3905 7.70169 16.2927 7.71271L13.9464 7.98019L13.2806 2.14135C13.2695 2.04356 13.22 1.95421 13.1429 1.89294C13.0659 1.83171 12.9678 1.80362 12.8699 1.81468L7.03129 2.48059L6.93162 1.60609C6.87718 1.12705 6.63816 0.696997 6.25861 0.395191C5.87917 0.0934963 5.4063 -0.04273 4.92737 0.0117457L1.19193 0.436716C0.536732 0.51175 0.0646715 1.10568 0.139668 1.76057C0.214368 2.41473 0.807775 2.88742 1.46349 2.81402L4.62056 2.45324L5.17374 7.30485L3.62782 9.32873C3.5696 9.40495 3.54314 9.50076 3.55401 9.59606L4.08964 14.2913C3.67005 14.8707 3.45653 15.602 3.54347 16.367C3.63302 17.1547 4.02414 17.8605 4.64486 18.3541C5.17548 18.7762 5.81947 19 6.48772 19C6.60098 19 6.71494 18.9936 6.82916 18.9806C7.90097 18.858 8.77522 18.1761 9.19407 17.2603L11.7381 16.9704L15.0058 16.5953C15.0198 16.5953 15.034 16.5945 15.0483 16.5928L16.9685 16.374L17.1078 17.3813C17.1337 17.5687 17.2942 17.7044 17.4782 17.7044C17.4952 17.7044 17.5125 17.7033 17.5299 17.7008C17.7347 17.6725 17.8778 17.4836 17.8495 17.2787L17.7127 16.2892L17.8085 16.2783C18.4635 16.2032 18.9356 15.6094 18.8608 14.9543ZM9.42596 16.4869L11.654 16.233L14.9642 15.8554L17.7243 15.5409C17.9727 15.5125 18.1518 15.2871 18.1234 15.0387C18.095 14.7902 17.8694 14.6109 17.6212 14.6394L17.0952 14.6994L17.0889 14.7004L17.0831 14.7008L9.42581 15.5739C9.43197 15.6138 9.43783 15.6538 9.44244 15.6941C9.47335 15.9644 9.46596 16.2303 9.42596 16.4869ZM10.6508 4.16058L10.4994 2.83201L9.20141 2.98004L9.35289 4.30902L9.77463 3.97359C9.88566 3.88527 10.0373 3.86802 10.1654 3.92906L10.6508 4.16058ZM8.69132 5.05813L8.46406 3.06417L7.11534 3.21798L7.73877 8.68775L13.209 8.06417L12.5853 2.59415L11.2368 2.74793L11.4641 4.74163C11.4794 4.87563 11.4207 5.00741 11.3109 5.08574C11.2011 5.16412 11.0574 5.1767 10.9357 5.11862L10.0552 4.69877L9.29099 5.30654C9.2242 5.35964 9.14252 5.38718 9.05996 5.38718C9.01201 5.38718 8.96377 5.3779 8.91798 5.35894C8.79337 5.30732 8.7066 5.19217 8.69132 5.05813ZM12.2597 10.2426L12.9102 10.5528L12.7178 8.86717L11.1126 9.05015L11.3043 10.7361L11.8689 10.2871C11.98 10.1988 12.1316 10.1815 12.2597 10.2426ZM0.87702 1.67622C0.905408 1.92485 1.13107 2.10435 1.3801 2.07652L3.32783 1.85394L3.22482 0.952379L1.27605 1.1741C1.02772 1.20253 0.848558 1.42782 0.87702 1.67622ZM4.06526 1.7697L4.90511 1.67374C5.00285 1.66268 5.10111 1.6907 5.17819 1.75204C5.25523 1.81327 5.3048 1.90262 5.31594 2.00044L6.57723 13.0626C6.89826 13.0711 7.2126 13.1317 7.51081 13.2409L7.04428 9.14786C7.04395 9.14541 7.04339 9.14307 7.04309 9.14062L7.04286 9.13709L7.04265 9.13331L6.19423 1.69003C6.1622 1.40796 6.021 1.15447 5.79672 0.976092C5.57236 0.797673 5.2933 0.71711 5.01127 0.749172L3.96232 0.868514L4.06526 1.7697ZM5.83847 13.1349L5.29505 8.36872L4.30832 9.66048L4.76023 13.6218C5.07644 13.3934 5.44062 13.2247 5.83847 13.1349ZM5.10683 17.7733C5.57225 18.1434 6.15389 18.3103 6.74503 18.2431C7.96517 18.1036 8.8445 16.9978 8.70505 15.7782C8.63788 15.1872 8.34457 14.658 7.87912 14.2878C7.4137 13.9176 6.83194 13.7508 6.24117 13.8179C5.02163 13.9573 4.1423 15.0633 4.28094 16.2831C4.34807 16.8739 4.64137 17.4031 5.10683 17.7733ZM8.34101 13.7069C8.72932 14.0157 9.02771 14.4075 9.21871 14.8505L16.6361 14.0047L16.008 8.49218L13.4552 8.78319L13.7235 11.134C13.7387 11.268 13.6801 11.3998 13.5703 11.4782C13.4604 11.5565 13.3168 11.5691 13.195 11.511L12.1494 11.0123L11.2422 11.7337C11.1754 11.7868 11.0937 11.8144 11.0111 11.8144C10.9632 11.8144 10.9149 11.8051 10.8691 11.7861C10.7445 11.7345 10.6577 11.6193 10.6425 11.4852L10.3751 9.13428L7.82282 9.42521L8.30802 13.682C8.31274 13.6856 8.31752 13.6892 8.3223 13.6927C8.32858 13.6974 8.33486 13.702 8.34101 13.7069Z" fill="white"/>
</svg>
