<svg width="19" height="19" viewBox="0 0 19 19" fill="none" xmlns="http://www.w3.org/2000/svg">
<g clip-path="url(#clip2)">
<path d="M16.959 1.52637H2.04102C0.9156 1.52637 0 2.44197 0 3.56738V9.50488C0 10.6303 0.9156 11.5459 2.04102 11.5459H6.62306L7.92953 16.6369C8.03121 17.0331 8.51252 17.1879 8.82617 16.9252L9.61823 16.2616L10.4619 17.2731C10.6595 17.5099 11.0117 17.5406 11.2472 17.3429L13.1667 15.7322C13.4017 15.5351 13.4329 15.1849 13.2364 14.9493L12.3912 13.936L13.185 13.271C13.4935 13.0125 13.4337 12.5211 13.0721 12.3442L11.4398 11.5459H16.959C18.0844 11.5459 19 10.6303 19 9.50488V3.56738C19 2.44197 18.0844 1.52637 16.959 1.52637ZM11.1804 14.2226L12.0259 15.2362L10.9592 16.1312L10.1158 15.1202C9.9183 14.8834 9.56639 14.8527 9.33086 15.05L8.78828 15.5046L7.60972 10.912L11.8132 12.9678L11.2503 13.4393C11.0151 13.6365 10.9838 13.9869 11.1804 14.2226ZM17.8867 9.50488C17.8867 10.0164 17.4705 10.4326 16.959 10.4326C8.76327 10.4326 9.27426 10.4267 9.18843 10.4448L7.01534 9.38205C6.58955 9.1739 6.11381 9.56133 6.23159 10.0204L6.33735 10.4326H2.04102C1.52946 10.4326 1.11328 10.0164 1.11328 9.50488V3.56738C1.11328 3.05583 1.52946 2.63965 2.04102 2.63965H16.959C17.4705 2.63965 17.8867 3.05583 17.8867 3.56738V9.50488Z" fill="white" stroke="#3C4251" stroke-width="0.3"/>
<path d="M4.49023 3.75293H2.82031C2.5129 3.75293 2.26367 4.00216 2.26367 4.30957V8.7627C2.26367 9.07011 2.5129 9.31934 2.82031 9.31934H4.49023C5.41103 9.31934 6.16016 8.57021 6.16016 7.64941C6.16016 7.2221 5.99884 6.83178 5.73392 6.53613C5.99884 6.24048 6.16016 5.85017 6.16016 5.42285C6.16016 4.50206 5.41103 3.75293 4.49023 3.75293ZM4.49023 8.20606H3.37695V7.09277H4.49023C4.79717 7.09277 5.04688 7.34248 5.04688 7.64941C5.04688 7.95635 4.79717 8.20606 4.49023 8.20606ZM4.49023 5.97949H3.37695V4.86621H4.49023C4.79717 4.86621 5.04688 5.11592 5.04688 5.42285C5.04688 5.72978 4.79717 5.97949 4.49023 5.97949Z" fill="white" stroke="#3C4251" stroke-width="0.3"/>
<path d="M10.6133 3.75293C10.3059 3.75293 10.0566 4.00216 10.0566 4.30957V7.37109C10.0566 7.83147 9.6821 8.20606 9.22168 8.20606C8.76126 8.20606 8.38672 7.83147 8.38672 7.37109V4.30957C8.38672 4.00216 8.13749 3.75293 7.83008 3.75293C7.52266 3.75293 7.27344 4.00216 7.27344 4.30957V7.37109C7.27344 8.44534 8.1474 9.31934 9.22168 9.31934C10.296 9.31934 11.1699 8.44534 11.1699 7.37109V4.30957C11.1699 4.00216 10.9207 3.75293 10.6133 3.75293Z" fill="white" stroke="#3C4251" stroke-width="0.3"/>
<path d="M16.4662 3.83236C16.2026 3.67417 15.8607 3.75963 15.7025 4.02329L14.5099 6.01098L13.3173 4.02329C13.1591 3.75967 12.8171 3.67424 12.5535 3.83236C12.2899 3.99052 12.2045 4.33245 12.3626 4.59607L13.9532 7.24706V8.76279C13.9532 9.0702 14.2025 9.31943 14.5099 9.31943C14.8173 9.31943 15.0665 9.0702 15.0665 8.76279V7.24706L16.6571 4.59607C16.8153 4.33245 16.7298 3.99052 16.4662 3.83236Z" fill="white" stroke="#3C4251" stroke-width="0.3"/>
</g>
<defs>
<clipPath id="clip2">
<rect width="19" height="19" fill="white"/>
</clipPath>
</defs>
</svg>
