<svg width="19" height="19" viewBox="0 0 19 19" fill="none" xmlns="http://www.w3.org/2000/svg">
<path d="M16.0794 10.3419C15.9388 10.3419 15.8042 10.2615 15.7418 10.1253C15.5846 9.78215 15.303 9.5206 14.9488 9.38883C14.5946 9.25698 14.2108 9.27101 13.8682 9.42831C13.6819 9.51381 13.4617 9.4321 13.3762 9.24581C13.2907 9.05956 13.3724 8.83924 13.5587 8.75377C14.0818 8.51367 14.6674 8.49219 15.2076 8.69321C15.7475 8.89412 16.1769 9.29294 16.4166 9.81618C16.5019 10.0025 16.4201 10.2228 16.2338 10.3081C16.1836 10.3311 16.1311 10.3419 16.0794 10.3419Z" fill="currentColor"/>
<path d="M3.52686 3.30859V9.50008C3.52686 9.705 3.69299 9.87118 3.89795 9.87118C4.1029 9.87118 4.26904 9.70504 4.26904 9.50008V3.30859C4.26904 3.10368 4.1029 2.9375 3.89795 2.9375C3.69299 2.9375 3.52686 3.10368 3.52686 3.30859Z" fill="currentColor"/>
<path d="M5.80371 8.83845V3.30859C5.80371 3.10368 5.63757 2.9375 5.43262 2.9375C5.22766 2.9375 5.06152 3.10364 5.06152 3.30859V8.83845C5.06152 9.04336 5.22766 9.20954 5.43262 9.20954C5.63757 9.20954 5.80371 9.04336 5.80371 8.83845Z" fill="currentColor"/>
<path d="M6.59668 8.63784C6.59668 8.84276 6.76282 9.00893 6.96777 9.00893C7.17273 9.00893 7.33887 8.84279 7.33887 8.63784V8.60937C7.33887 8.40446 7.17273 8.23828 6.96777 8.23828C6.76282 8.23828 6.59668 8.40442 6.59668 8.60937V8.63784Z" fill="currentColor"/>
<path d="M6.96777 7.40803C7.17273 7.40803 7.33887 7.24189 7.33887 7.03693V3.30859C7.33887 3.10368 7.17273 2.9375 6.96777 2.9375C6.76282 2.9375 6.59668 3.10364 6.59668 3.30859V7.03697C6.59668 7.24189 6.76282 7.40803 6.96777 7.40803Z" fill="currentColor"/>
<path d="M8.87354 9.50008V3.30859C8.87354 3.10368 8.7074 2.9375 8.50244 2.9375C8.29749 2.9375 8.13135 3.10364 8.13135 3.30859V9.50008C8.13135 9.705 8.29749 9.87118 8.50244 9.87118C8.7074 9.87114 8.87354 9.705 8.87354 9.50008Z" fill="currentColor"/>
<path d="M10.0371 7.40803C10.2421 7.40803 10.4082 7.24189 10.4082 7.03693V3.30859C10.4082 3.10368 10.2421 2.9375 10.0371 2.9375C9.83215 2.9375 9.66602 3.10364 9.66602 3.30859V7.03697C9.66602 7.24189 9.83215 7.40803 10.0371 7.40803Z" fill="currentColor"/>
<path d="M9.66602 8.63784C9.66602 8.84276 9.83215 9.00893 10.0371 9.00893C10.2421 9.00893 10.4082 8.84279 10.4082 8.63784V8.60937C10.4082 8.40446 10.2421 8.23828 10.0371 8.23828C9.83215 8.23828 9.66602 8.40442 9.66602 8.60937V8.63784Z" fill="currentColor"/>
<path d="M4.74042 1.83203C4.74042 1.62711 4.57428 1.46094 4.36932 1.46094H1.83008C1.62512 1.46094 1.45898 1.62708 1.45898 1.83203V4.37521C1.45898 4.58013 1.62512 4.7463 1.83008 4.7463C2.03503 4.7463 2.20117 4.58017 2.20117 4.37521V2.20309H4.36936C4.57428 2.20309 4.74042 2.03695 4.74042 1.83203Z" fill="currentColor"/>
<path d="M1.45898 11.3576C1.45898 11.5625 1.62512 11.7287 1.83008 11.7287H4.36936C4.57432 11.7287 4.74045 11.5626 4.74045 11.3576C4.74045 11.1527 4.57432 10.9865 4.36936 10.9865H2.20117V8.81445C2.20117 8.60954 2.03503 8.44336 1.83008 8.44336C1.62512 8.44336 1.45898 8.6095 1.45898 8.81445V11.3576Z" fill="currentColor"/>
<path d="M15.1745 4.74627C15.3795 4.74627 15.5456 4.58013 15.5456 4.37517V1.83203C15.5456 1.62711 15.3795 1.46094 15.1745 1.46094H12.6353C12.4303 1.46094 12.2642 1.62708 12.2642 1.83203C12.2642 2.03699 12.4303 2.20312 12.6353 2.20312H14.8034V4.37525C14.8034 4.58013 14.9696 4.74627 15.1745 4.74627Z" fill="currentColor"/>
<path fill-rule="evenodd" clip-rule="evenodd" d="M18.8735 17.0364L17.9478 15.0231C17.9067 14.9337 17.8317 14.8642 17.7393 14.8301C17.6469 14.796 17.5448 14.8 17.4554 14.8411L16.874 15.1089L16.3326 13.925C17.9591 12.9735 18.634 10.9169 17.8334 9.16624C17.6306 8.72293 17.3486 8.33191 17.0045 8.00731V1.00425C17.0045 0.450508 16.5544 0 16.0012 0H1.00329C0.450063 0 0 0.450508 0 1.00425V4.92646V8.26396V12.1862C0 12.7399 0.450063 13.1904 1.00325 13.1904H11.6833C12.082 13.6396 12.5868 13.9871 13.1654 14.2021C13.5862 14.3585 14.0231 14.4363 14.4589 14.4363C14.8642 14.4363 15.2685 14.3687 15.658 14.2345L16.1999 15.4194L15.6167 15.6881C15.4306 15.7739 15.3492 15.994 15.4348 16.1801L16.3607 18.195C16.5157 18.5307 16.793 18.786 17.1413 18.9141C17.2974 18.9715 17.4592 19 17.6201 19C17.8167 19 18.0122 18.9574 18.195 18.8727C18.8874 18.5541 19.1919 17.7304 18.8735 17.0364ZM0.742188 1.00425V4.92646V8.26396V12.1862C0.742188 12.3307 0.859305 12.4482 1.00329 12.4482H11.1716C11.1399 12.3877 11.1093 12.3263 11.0806 12.2636C10.5738 11.156 10.658 9.92561 11.2006 8.93026V3.30826C11.2006 3.10331 11.3667 2.93717 11.5717 2.93717C11.7766 2.93717 11.9428 3.10335 11.9428 3.30826V7.97818C12.1768 7.76235 12.4417 7.57376 12.7353 7.42017V3.30826C12.7353 3.10331 12.9015 2.93717 13.1064 2.93717C13.3114 2.93717 13.4775 3.10335 13.4775 3.30826V7.1276C14.223 6.92186 15.0118 6.95452 15.7508 7.22957C15.9286 7.29574 16.0994 7.37463 16.2623 7.46492V1.00425C16.2623 0.85975 16.1452 0.742188 16.0012 0.742188H1.00329C0.859305 0.742188 0.742188 0.85975 0.742188 1.00425ZM13.4239 13.5064C14.1672 13.7825 14.9733 13.7525 15.6939 13.4218C17.1842 12.7382 17.8412 10.9677 17.1585 9.47495C16.9776 9.07951 16.718 8.73614 16.3985 8.46045C16.396 8.45849 16.3938 8.4563 16.3914 8.45426C16.1287 8.22904 15.8258 8.04936 15.492 7.92512C14.748 7.64828 13.9408 7.67815 13.2191 8.00913C11.7294 8.69294 11.0729 10.463 11.7556 11.9549C12.0866 12.6786 12.6791 13.2296 13.4239 13.5064ZM17.3973 18.2175C17.5578 18.2765 17.7306 18.2699 17.8838 18.199C18.2059 18.0508 18.3468 17.6684 18.199 17.3461L17.4286 15.6705L16.2639 16.2071L17.0348 17.8845C17.1063 18.0394 17.2352 18.1579 17.3973 18.2175Z" fill="currentColor"/>
<path d="M0.371094 6.96686C0.576049 6.96686 0.742188 6.79964 0.742188 6.59473C0.742188 6.38981 0.576049 6.22363 0.371094 6.22363C0.166139 6.22363 0 6.38977 0 6.59473V6.59684C0 6.80176 0.166139 6.96686 0.371094 6.96686Z" fill="currentColor"/>
</svg>
