<svg width="19" height="19" viewBox="0 0 19 19" fill="none" xmlns="http://www.w3.org/2000/svg">
<path d="M18.9119 4.42978C18.8414 4.34662 18.7379 4.29867 18.6289 4.29867H3.86461L3.36126 1.80641C3.3263 1.63329 3.17415 1.50879 2.99751 1.50879H0.371094C0.166139 1.50879 0 1.67493 0 1.87988C0 2.08484 0.166139 2.25098 0.371094 2.25098H2.69384L5.14844 14.4041C4.76996 14.7257 4.52935 15.2053 4.52935 15.7401C4.52935 16.706 5.31425 17.4919 6.27905 17.4919C7.24386 17.4919 8.0288 16.7061 8.0288 15.7401C8.0288 15.3644 7.91005 15.016 7.70821 14.7304H13.4071C13.2053 15.016 13.0865 15.3644 13.0865 15.7401C13.0865 16.706 13.8714 17.4919 14.8363 17.4919C15.8011 17.4919 16.586 16.7061 16.586 15.7401C16.586 15.3631 16.4664 15.0134 16.2632 14.7273C16.4454 14.7036 16.586 14.5479 16.586 14.3593C16.586 14.1544 16.4199 13.9882 16.2149 13.9882H5.82161L5.6636 13.206H15.9075C16.8822 13.206 17.7054 12.508 17.8649 11.5464L18.995 4.73048C19.0128 4.6229 18.9824 4.51294 18.9119 4.42978ZM7.28661 15.7401C7.28661 16.2968 6.83462 16.7498 6.27905 16.7498C5.72349 16.7498 5.27154 16.2968 5.27154 15.7401C5.27154 15.1833 5.72353 14.7304 6.27905 14.7304C6.83466 14.7304 7.28661 15.1834 7.28661 15.7401ZM14.8363 16.7498C14.2807 16.7498 13.8288 16.2968 13.8288 15.7401C13.8288 15.1833 14.2808 14.7304 14.8363 14.7304C15.3919 14.7304 15.8438 15.1834 15.8438 15.7401C15.8438 16.2968 15.3919 16.7498 14.8363 16.7498ZM17.1327 11.425C17.0329 12.0269 16.5176 12.4638 15.9075 12.4638H5.51375L4.01453 5.0409H18.1912L17.1327 11.425Z" fill="white"/>
<path d="M10.1655 11.2548C10.1917 11.4376 10.3482 11.5733 10.5329 11.5733H11.9025C12.0871 11.5733 12.2436 11.4376 12.2698 11.2548L12.9717 6.35536C12.9869 6.24885 12.9552 6.14094 12.8847 6.05963C12.8143 5.97836 12.712 5.93164 12.6043 5.93164H9.83105C9.72348 5.93164 9.62117 5.97836 9.55066 6.05963C9.48019 6.14094 9.44846 6.24885 9.46371 6.35536L10.1655 11.2548ZM12.1763 6.67383L11.5808 10.8311H10.8546L10.2591 6.67383H12.1763Z" fill="white"/>
<path d="M13.7769 11.5733H15.5897C15.7633 11.5733 15.9137 11.453 15.9518 11.2836L17.0536 6.38412C17.0783 6.27416 17.0517 6.1589 16.9813 6.07088C16.9109 5.98285 16.8043 5.93164 16.6916 5.93164H14.4787C14.2941 5.93164 14.1376 6.06735 14.1114 6.25011L13.4095 11.1496C13.3943 11.2561 13.426 11.364 13.4965 11.4453C13.567 11.5266 13.6693 11.5733 13.7769 11.5733ZM14.8005 6.67379H16.2278L15.2928 10.8311H14.2049L14.8005 6.67379Z" fill="white"/>
<path d="M5.37893 6.37621L6.3685 11.2757C6.40345 11.4488 6.5556 11.5733 6.73224 11.5733H8.65737C8.76495 11.5733 8.86726 11.5266 8.93777 11.4453C9.00824 11.364 9.03997 11.2561 9.02472 11.1496L8.32286 6.25011C8.29667 6.06735 8.14014 5.93164 7.95552 5.93164H5.74268C5.63139 5.93164 5.52596 5.98159 5.45549 6.06772C5.38498 6.15389 5.35689 6.26711 5.37893 6.37621ZM7.63382 6.67383L8.22935 10.8311H7.03591L6.19627 6.67383H7.63382Z" fill="white"/>
</svg>
