<svg width="15" height="15" viewBox="0 0 15 15" fill="none" xmlns="http://www.w3.org/2000/svg">
<path d="M7.54365 5.5019C7.39378 5.30204 7.14394 5.20215 6.84423 5.20215H3.99651C3.44696 5.20215 2.99734 5.60187 2.89741 6.10143L2.84746 6.50115C2.79752 6.75095 2.89745 7.0507 3.04728 7.25055C3.19715 7.45037 3.447 7.5503 3.7467 7.5503H6.59443C7.09403 7.5503 7.54365 7.15067 7.69353 6.65102L7.74347 6.2513C7.79342 6.0015 7.69353 5.70175 7.54365 5.5019ZM6.64437 6.45116C6.64437 6.50111 6.59439 6.55105 6.54444 6.55105H3.79669L3.84663 6.2513C3.84663 6.20136 3.89662 6.15142 3.94656 6.15142H6.69431L6.64437 6.45116Z" fill="currentColor"/>
<path d="M14.638 4.5026C14.3866 4.20932 14.0296 4.02202 13.5968 3.96901C13.5954 3.94682 13.5931 3.9248 13.5888 3.90314C13.389 3.15374 12.5897 2.60423 11.6904 2.60423H7.99716L6.74447 1.30519C6.64454 1.20522 6.54465 1.15527 6.39478 1.15527H1.94844C0.799352 1.15523 0 1.85466 0 2.80392V11.6966C0 12.2288 0.240913 12.8034 0.632103 13.2243C0.638043 13.2313 0.643458 13.2385 0.649479 13.2454C0.949226 13.645 1.39889 13.8449 1.89845 13.8449H1.9484H11.6905C12.7396 13.8449 13.6389 12.8457 13.8387 11.8964L14.9877 5.85138C15.0377 5.35181 14.9377 4.85225 14.638 4.5026ZM0.999251 2.80404C0.999211 2.30444 1.5987 2.15452 1.94844 2.15452H6.19496L7.39399 3.4035C7.48293 3.49244 7.59163 3.54153 7.7025 3.55131C7.77201 3.58493 7.85311 3.6034 7.9435 3.6034H11.6905C12.0347 3.6034 12.3495 3.74988 12.5231 3.95305H3.54714C2.49799 3.95305 1.5987 4.65247 1.44887 5.6017L0.999211 8.0259V2.80404H0.999251ZM13.9885 5.70171L12.8395 11.7468C12.7395 12.2963 12.24 12.8458 11.7404 12.8458H11.6905H1.94844C1.75496 12.8458 1.55228 12.7254 1.3841 12.5485C1.28566 12.38 1.25714 12.2058 1.29896 11.9965L2.448 5.80155C2.49799 5.30195 2.99755 4.95226 3.5471 4.95226L13.0893 5.00224H13.3391C13.5889 5.00224 13.7887 5.05219 13.8886 5.20206C13.9885 5.30199 14.0384 5.50189 13.9885 5.70171Z" fill="currentColor"/>
</svg>
