<svg width="15" height="15" viewBox="0 0 15 15" fill="none" xmlns="http://www.w3.org/2000/svg">
<path d="M6.86106 8.77778L6.22217 8.13888L13.3888 1L13.9999 1.61111L6.86106 8.77778Z" fill="currentColor"/>
<path d="M14.167 5.58301H13.2226V1.77745H9.41699V0.833008H14.167V5.58301Z" fill="currentColor"/>
<path d="M11.7779 14.1668H2.25016C1.47239 14.1668 0.833496 13.5279 0.833496 12.7501V3.22233C0.833496 2.44455 1.47239 1.80566 2.25016 1.80566H7.50016V2.75011H2.25016C2.00016 2.75011 1.77794 2.97233 1.77794 3.22233V12.7501C1.77794 13.0001 2.00016 13.2223 2.25016 13.2223H11.7779C12.0279 13.2223 12.2502 13.0001 12.2502 12.7501V7.50011H13.1946V12.7501C13.2224 13.5279 12.5835 14.1668 11.7779 14.1668Z" fill="currentColor"/>
</svg>
