<svg width="19" height="19" viewBox="0 0 19 19" fill="none" xmlns="http://www.w3.org/2000/svg">
<path d="M15.9188 18.4866H3.08098C3.01288 18.4866 2.94757 18.4596 2.89942 18.4114C2.85127 18.3633 2.82422 18.298 2.82422 18.2299V0.770429C2.82422 0.702332 2.85127 0.637025 2.89942 0.588874C2.94757 0.540723 3.01288 0.513672 3.08098 0.513672H12.0675C12.1356 0.513686 12.2008 0.540747 12.249 0.588902L16.1003 4.44025C16.1485 4.48839 16.1756 4.55369 16.1756 4.62178V18.2299C16.1756 18.298 16.1485 18.3633 16.1004 18.4114C16.0522 18.4596 15.9869 18.4866 15.9188 18.4866ZM3.33773 17.9731H15.6621V4.72808L11.9612 1.02719H3.33773V17.9731Z" fill="white" stroke="white" stroke-width="0.2"/>
<path d="M15.9186 4.87854H12.0673C11.9992 4.87854 11.9339 4.85149 11.8857 4.80334C11.8376 4.75518 11.8105 4.68988 11.8105 4.62178V0.770429C11.8105 0.702333 11.8376 0.637025 11.8857 0.588874C11.9339 0.540723 11.9992 0.513672 12.0673 0.513672C12.1354 0.513672 12.2007 0.540723 12.2489 0.588874C12.297 0.637025 12.3241 0.702333 12.3241 0.770429V4.36502H15.9186C15.9867 4.36502 16.052 4.39207 16.1002 4.44023C16.1483 4.48838 16.1754 4.55368 16.1754 4.62178C16.1754 4.68988 16.1483 4.75518 16.1002 4.80334C16.052 4.85149 15.9867 4.87854 15.9186 4.87854Z" fill="white" stroke="white" stroke-width="0.2"/>
<path d="M13.8649 10.5272H5.13517C5.06708 10.5272 5.00177 10.5001 4.95362 10.452C4.90547 10.4038 4.87842 10.3385 4.87842 10.2704C4.87842 10.2023 4.90547 10.137 4.95362 10.0889C5.00177 10.0407 5.06708 10.0137 5.13517 10.0137H13.8649C13.933 10.0137 13.9983 10.0407 14.0465 10.0889C14.0946 10.137 14.1217 10.2023 14.1217 10.2704C14.1217 10.3385 14.0946 10.4038 14.0465 10.452C13.9983 10.5001 13.933 10.5272 13.8649 10.5272Z" fill="white" stroke="white" stroke-width="0.2"/>
<path d="M13.8649 7.70296H5.13517C5.06708 7.70296 5.00177 7.67591 4.95362 7.62776C4.90547 7.57961 4.87842 7.5143 4.87842 7.44621C4.87842 7.37811 4.90547 7.3128 4.95362 7.26465C5.00177 7.2165 5.06708 7.18945 5.13517 7.18945H13.8649C13.933 7.18945 13.9983 7.2165 14.0465 7.26465C14.0946 7.3128 14.1217 7.37811 14.1217 7.44621C14.1217 7.5143 14.0946 7.57961 14.0465 7.62776C13.9983 7.67591 13.933 7.70296 13.8649 7.70296Z" fill="white" stroke="white" stroke-width="0.2"/>
<path d="M9.50003 4.87874H5.13517C5.06708 4.87874 5.00177 4.85169 4.95362 4.80354C4.90547 4.75539 4.87842 4.69008 4.87842 4.62199C4.87842 4.55389 4.90547 4.48859 4.95362 4.44044C5.00177 4.39228 5.06708 4.36523 5.13517 4.36523H9.50003C9.56812 4.36523 9.63343 4.39228 9.68158 4.44044C9.72973 4.48859 9.75678 4.55389 9.75678 4.62199C9.75678 4.69008 9.72973 4.75539 9.68158 4.80354C9.63343 4.85169 9.56812 4.87874 9.50003 4.87874Z" fill="white" stroke="white" stroke-width="0.2"/>
<path d="M10.9185 16.7865C10.8769 16.7865 10.836 16.7763 10.7991 16.7569L9.49996 16.0729L8.20077 16.7559C8.15837 16.7782 8.11057 16.7882 8.06279 16.7848C8.01501 16.7813 7.96914 16.7646 7.93038 16.7364C7.89163 16.7082 7.86152 16.6698 7.84346 16.6254C7.8254 16.5811 7.82012 16.5325 7.82821 16.4853L8.07624 15.0387L7.02534 14.0143C6.991 13.9808 6.96672 13.9384 6.95523 13.8919C6.94375 13.8453 6.94552 13.7965 6.96035 13.7509C6.97518 13.7054 7.00247 13.6648 7.03914 13.634C7.07581 13.6031 7.12039 13.5831 7.16784 13.5762L8.62031 13.3652L9.26888 12.0503C9.29254 12.0103 9.32622 11.9771 9.36661 11.9541C9.407 11.9311 9.45269 11.9189 9.49919 11.9189C9.54568 11.9189 9.59138 11.9311 9.63177 11.9541C9.67215 11.9771 9.70584 12.0103 9.7295 12.0503L10.3788 13.3662L11.8313 13.5773C11.8788 13.5841 11.9233 13.6041 11.96 13.635C11.9967 13.6659 12.024 13.7064 12.0388 13.752C12.0536 13.7976 12.0554 13.8464 12.0439 13.8929C12.0324 13.9395 12.0081 13.9818 11.9738 14.0153L10.9229 15.0398L11.1709 16.4863C11.1773 16.5232 11.1754 16.561 11.1656 16.5971C11.1558 16.6332 11.1382 16.6667 11.1141 16.6953C11.09 16.7238 11.06 16.7468 11.026 16.7626C10.9921 16.7783 10.9552 16.7865 10.9178 16.7865H10.9185ZM9.49996 15.5271C9.54156 15.5271 9.58253 15.5372 9.61935 15.5566L10.5783 16.0604L10.3945 14.9946C10.3875 14.9535 10.3905 14.9114 10.4034 14.8718C10.4163 14.8322 10.4386 14.7964 10.4684 14.7673L11.2436 14.012L10.1724 13.8564C10.1312 13.8504 10.0921 13.8345 10.0584 13.81C10.0247 13.7855 9.99749 13.7533 9.97907 13.7159L9.49996 12.7441L9.02111 13.7146C9.00268 13.752 8.97545 13.7843 8.94177 13.8087C8.90809 13.8332 8.86897 13.8491 8.82777 13.8551L7.75658 14.0107L8.53173 14.7661C8.56155 14.7951 8.58386 14.831 8.59675 14.8705C8.60963 14.9101 8.61269 14.9523 8.60567 14.9933L8.42158 16.0604L9.37954 15.5566C9.41666 15.5371 9.45801 15.5269 9.49996 15.5271Z" fill="white" stroke="white" stroke-width="0.2"/>
</svg>
