<svg width="19" height="19" viewBox="0 0 19 19" fill="none" xmlns="http://www.w3.org/2000/svg">
<g clip-path="url(#clip12)">
<path d="M9.4998 18.9999C8.91468 18.9999 8.32996 18.9464 7.76183 18.8407C7.62006 18.8143 7.50639 18.7082 7.47036 18.5686L7.23055 17.6395C6.57844 17.4581 5.95167 17.1989 5.36187 16.8665L4.58006 17.3679C4.45492 17.4482 4.29393 17.446 4.17106 17.3624C3.17267 16.6835 2.32249 15.8325 1.64415 14.8331C1.56079 14.7103 1.55864 14.5496 1.63869 14.4246L2.13991 13.6416C1.80777 13.0511 1.54862 12.4235 1.36745 11.7706L0.439343 11.5306C0.299732 11.4945 0.193706 11.3808 0.167395 11.239C0.0618146 10.6704 0.00830078 10.0852 0.00830078 9.49957C0.00830078 8.91396 0.0618146 8.32873 0.167358 7.76011C0.193669 7.61835 0.299695 7.50464 0.439306 7.46857L1.36741 7.22858C1.54859 6.57565 1.80769 5.94807 2.13987 5.35756L1.63865 4.5746C1.55864 4.44957 1.56076 4.28892 1.64411 4.16608C2.32242 3.16669 3.17263 2.3157 4.17102 1.63675C4.29397 1.55311 4.45492 1.55099 4.58002 1.63126L5.36183 2.13267C5.95167 1.8003 6.5784 1.54105 7.23051 1.35972L7.47032 0.430578C7.50636 0.290967 7.61999 0.184868 7.76179 0.158482C8.89809 -0.0528273 10.1014 -0.0528273 11.2377 0.158482C11.3795 0.184868 11.4932 0.290967 11.5292 0.430578L11.769 1.35972C12.4211 1.54105 13.0479 1.8003 13.6377 2.13267L14.4195 1.63126C14.5446 1.55099 14.7056 1.55314 14.8285 1.63675C15.8269 2.3157 16.6771 3.16669 17.3554 4.16608C17.4387 4.28892 17.4409 4.44957 17.3609 4.5746L16.8597 5.3576C17.1918 5.94807 17.4509 6.57569 17.6321 7.22861L18.5602 7.46861C18.6998 7.50472 18.8059 7.61843 18.8322 7.76015C18.9377 8.32876 18.9912 8.914 18.9912 9.49961C18.9912 10.0852 18.9377 10.6705 18.8322 11.2391C18.8059 11.3808 18.6998 11.4945 18.5602 11.5306L17.6321 11.7706C17.4509 12.4235 17.1918 13.0511 16.8597 13.6416L17.3609 14.4247C17.4409 14.5497 17.4388 14.7103 17.3554 14.8331C16.677 15.8325 15.8269 16.6835 14.8285 17.3625C14.7055 17.4461 14.5446 17.4482 14.4195 17.368L13.6377 16.8666C13.0478 17.1989 12.4211 17.4582 11.769 17.6395L11.5292 18.5686C11.4931 18.7083 11.3795 18.8144 11.2377 18.8407C10.6696 18.9464 10.0849 18.9999 9.4998 18.9999ZM8.12908 18.1507C9.02961 18.2928 9.96996 18.2928 10.8705 18.1507L11.1047 17.2434C11.1387 17.1116 11.2421 17.0091 11.3741 16.9761C12.1074 16.7929 12.8079 16.5027 13.4562 16.1135C13.5771 16.0409 13.7288 16.0431 13.8476 16.1193L14.6109 16.6089C15.38 16.0545 16.0482 15.3855 16.602 14.6156L16.1126 13.851C16.0366 13.7324 16.0344 13.581 16.1068 13.4602C16.4957 12.8113 16.7857 12.1101 16.9687 11.3759C17.0016 11.2439 17.1041 11.1405 17.2358 11.1064L18.1422 10.872C18.2132 10.4212 18.2491 9.9606 18.2491 9.49957C18.2491 9.03855 18.2132 8.57793 18.1422 8.1271L17.2358 7.89275C17.1041 7.85868 17.0015 7.75525 16.9687 7.62321C16.7857 6.88909 16.4957 6.18784 16.1068 5.53896C16.0344 5.41816 16.0366 5.26675 16.1126 5.14811L16.602 4.38355C16.0482 3.61365 15.3799 2.94469 14.6109 2.39033L13.8476 2.87989C13.7288 2.95608 13.5771 2.95827 13.4562 2.88568C12.8079 2.49646 12.1074 2.20622 11.3741 2.02312C11.2421 1.99012 11.1387 1.88755 11.1047 1.75581L10.8705 0.848446C9.96996 0.706386 9.02961 0.706386 8.12908 0.848446L7.89487 1.75581C7.86088 1.88755 7.75749 1.99012 7.62545 2.02312C6.89214 2.20626 6.19163 2.49646 5.54338 2.88568C5.42247 2.95831 5.27073 2.95604 5.15201 2.87989L4.38868 2.39033C3.61959 2.94469 2.95141 3.61365 2.39757 4.38355L2.88699 5.14811C2.96295 5.26675 2.96514 5.41816 2.89274 5.53896C2.50386 6.1878 2.21391 6.88905 2.03091 7.62321C1.998 7.75525 1.8955 7.85868 1.76375 7.89275L0.857396 8.1271C0.786403 8.57793 0.75048 9.03855 0.75048 9.49957C0.75048 9.9606 0.786403 10.4212 0.857396 10.872L1.76375 11.1064C1.8955 11.1405 1.99803 11.2439 2.03091 11.3759C2.21391 12.1101 2.50386 12.8113 2.89274 13.4602C2.96514 13.581 2.96295 13.7324 2.88699 13.851L2.39757 14.6156C2.95141 15.3855 3.61963 16.0545 4.38868 16.6089L5.15201 16.1193C5.27076 16.0431 5.42244 16.0409 5.54338 16.1135C6.19163 16.5027 6.89214 16.793 7.62545 16.9761C7.75749 17.0091 7.86088 17.1116 7.89487 17.2434L8.12908 18.1507ZM18.4673 11.1713H18.4677H18.4673Z" fill="white" stroke="white" stroke-width="0.1"/>
<path d="M16.0183 10.0239C15.868 10.0239 15.7275 9.92732 15.6726 9.78749C15.6151 9.64079 15.6607 9.46623 15.7825 9.36629C15.9061 9.26487 16.0898 9.25519 16.2233 9.34336C16.3527 9.42882 16.4164 9.59545 16.3773 9.74544C16.3355 9.9058 16.1842 10.0239 16.0183 10.0239Z" fill="white" stroke="white" stroke-width="0.1"/>
<path d="M9.49979 10.6422C7.86992 10.6422 6.54395 9.31615 6.54395 7.68632C6.54395 6.05648 7.86992 4.73047 9.49979 4.73047C11.1297 4.73047 12.4556 6.05648 12.4556 7.68632C12.4556 9.31615 11.1297 10.6422 9.49979 10.6422ZM9.49979 5.47265C8.27917 5.47265 7.28616 6.46566 7.28616 7.68628C7.28616 8.9069 8.27921 9.89991 9.49979 9.89991C10.7204 9.89991 11.7134 8.90686 11.7134 7.68628C11.7134 6.4657 10.7204 5.47265 9.49979 5.47265Z" fill="white" stroke="white" stroke-width="0.1"/>
<path d="M15.8674 10.9499C15.6704 10.8931 15.4647 11.0068 15.408 11.2037C15.1218 12.1962 14.5816 13.1099 13.8459 13.846C13.5907 14.1012 13.3154 14.3324 13.0232 14.5375V12.5134C13.0232 11.8336 12.4702 11.2805 11.7904 11.2805H7.20944C6.52968 11.2805 5.97662 11.8336 5.97662 12.5134V14.5447C5.6824 14.3388 5.40563 14.1066 5.14945 13.8504C3.98866 12.6896 3.34984 11.1458 3.35058 9.50329C3.35136 7.86066 3.99178 6.31603 5.1539 5.1539C6.31596 3.99182 7.86058 3.35139 9.50326 3.35061H9.50623C11.1476 3.35061 12.6903 3.9894 13.8503 5.14949C14.5955 5.89467 15.1388 6.82189 15.4213 7.83093C15.4766 8.02832 15.6817 8.14337 15.8787 8.08822C16.0761 8.03296 16.1913 7.82815 16.1361 7.63079C15.8192 6.49925 15.2103 5.45973 14.3752 4.62463C13.0748 3.32427 11.346 2.6084 9.50626 2.6084H9.50292C7.66215 2.60925 5.93127 3.3269 4.62908 4.62908C3.3269 5.9313 2.60925 7.66222 2.6084 9.50296C2.60755 11.3438 3.32356 13.0742 4.62463 14.3752C5.08458 14.8352 5.60399 15.2263 6.16844 15.5377C6.16866 15.5378 6.16889 15.5379 6.16915 15.538C7.18153 16.0963 8.33085 16.3913 9.49357 16.3913H9.50029C10.6653 16.3902 11.8172 16.0928 12.8313 15.5314C12.8315 15.5313 12.8316 15.5312 12.8317 15.5312C13.3937 15.2204 13.9115 14.83 14.3708 14.3706C15.1951 13.546 15.8003 12.522 16.1212 11.4092C16.1779 11.2124 16.0643 11.0067 15.8674 10.9499ZM6.71883 14.9892V12.5134C6.71883 12.2428 6.93894 12.0227 7.20944 12.0227H11.7904C12.0609 12.0227 12.281 12.2429 12.281 12.5134V14.9833C10.5467 15.8633 8.45361 15.8655 6.71883 14.9892Z" fill="white" stroke="white" stroke-width="0.1"/>
</g>
<defs>
<clipPath id="clip12">
<rect width="19" height="19" fill="white"/>
</clipPath>
</defs>
</svg>
