<svg width="19" height="19" viewBox="0 0 19 19" fill="none" xmlns="http://www.w3.org/2000/svg">
<g clip-path="url(#clip10)">
<path d="M16.216 2.78302C12.5044 -0.928677 6.49622 -0.92927 2.78401 2.78302C-0.927724 6.49471 -0.92828 12.5028 2.78401 16.215C6.49563 19.9267 12.5038 19.9273 16.216 16.215C19.9277 12.5033 19.9282 6.49526 16.216 2.78302ZM15.819 14.8611C15.3753 14.4643 14.9006 14.1131 14.4002 13.8105C14.7309 12.6681 14.9269 11.411 14.9732 10.1043H17.7656C17.6393 11.8657 16.9625 13.5179 15.819 14.8611ZM1.2344 10.1043H4.02679C4.0731 11.411 4.26902 12.6681 4.59973 13.8105C4.09939 14.1131 3.6247 14.4643 3.18094 14.8611C2.03742 13.5179 1.36069 11.8657 1.2344 10.1043ZM3.18097 4.13692C3.62474 4.53374 4.09942 4.88492 4.59977 5.18756C4.26906 6.32993 4.07314 7.58702 4.02682 8.89376H1.2344C1.36069 7.13243 2.03742 5.48015 3.18097 4.13692ZM8.89476 5.31266C7.90764 5.24206 6.95585 4.99894 6.07348 4.59785C6.58665 3.27639 7.53269 1.69144 8.89476 1.29866V5.31266ZM8.89476 6.52545V8.8938H5.23783C5.27973 7.7884 5.43635 6.72693 5.69683 5.75572C6.69956 6.19407 7.77797 6.45585 8.89476 6.52545ZM8.89476 10.1043V12.4726C7.77797 12.5422 6.69956 12.804 5.69683 13.2424C5.43635 12.2711 5.27973 11.2097 5.23783 10.1043H8.89476ZM8.89476 13.6854V17.6994C7.53277 17.3066 6.58673 15.7218 6.07348 14.4002C6.95585 13.9991 7.90764 13.756 8.89476 13.6854ZM10.1052 13.6854C11.0924 13.756 12.0441 13.9991 12.9265 14.4002C12.4133 15.7217 11.4673 17.3066 10.1052 17.6994V13.6854ZM10.1052 12.4726V10.1043H13.7622C13.7203 11.2097 13.5636 12.2711 13.3032 13.2424C12.3004 12.804 11.222 12.5422 10.1052 12.4726ZM10.1052 8.8938V6.52545C11.222 6.45585 12.3004 6.19407 13.3032 5.75572C13.5636 6.72693 13.7203 7.7884 13.7622 8.8938H10.1052ZM10.1052 5.31266V1.2987C11.4673 1.69148 12.4133 3.27643 12.9265 4.59789C12.0441 4.99894 11.0924 5.24206 10.1052 5.31266ZM12.8239 1.90298C13.5986 2.24225 14.3215 2.70229 14.9694 3.27309C14.661 3.54503 14.3356 3.7916 13.9957 4.01211C13.6939 3.2649 13.3084 2.53874 12.8239 1.90298ZM5.00423 4.01211C4.6644 3.7916 4.33899 3.54503 4.03053 3.27309C4.67849 2.70229 5.40131 2.24225 6.17608 1.90298C5.69153 2.53881 5.30602 3.26497 5.00423 4.01211ZM5.00427 14.986C5.30602 15.7332 5.6916 16.4593 6.17611 17.0951C5.40135 16.7558 4.67853 16.2958 4.03057 15.725C4.33899 15.4531 4.66444 15.2065 5.00427 14.986ZM13.9957 14.986C14.3356 15.2065 14.661 15.4531 14.9694 15.725C14.3215 16.2958 13.5986 16.7558 12.8239 17.0951C13.3084 16.4594 13.6939 15.7332 13.9957 14.986ZM14.9732 8.8938C14.9269 7.58706 14.731 6.32993 14.4003 5.1876C14.9006 4.88496 15.3753 4.53378 15.8191 4.13696C16.9626 5.48015 17.6393 7.13243 17.7656 8.8938H14.9732Z" fill="white" stroke="#3C4251" stroke-width="0.4"/>
</g>
<defs>
<clipPath id="clip10">
<rect width="19" height="19" fill="white"/>
</clipPath>
</defs>
</svg>
