<svg width="19" height="19" viewBox="0 0 19 19" fill="none" xmlns="http://www.w3.org/2000/svg">
<path d="M2.27734 11.1318H2.574C2.77895 11.1318 2.94509 10.9657 2.94509 10.7607C2.94509 10.5558 2.77895 10.3896 2.574 10.3896H2.27734C2.07239 10.3896 1.90625 10.5558 1.90625 10.7607C1.90625 10.9657 2.07239 11.1318 2.27734 11.1318Z" fill="white"/>
<path d="M6.31014 11.1318C6.51509 11.1318 6.68123 10.9657 6.68123 10.7607C6.68123 10.5558 6.51509 10.3896 6.31014 10.3896H4.05908C3.85413 10.3896 3.68799 10.5558 3.68799 10.7607C3.68799 10.9657 3.85413 11.1318 4.05908 11.1318H6.31014Z" fill="white"/>
<path d="M2.27734 12.8926H6.31032C6.51527 12.8926 6.68141 12.7264 6.68141 12.5215C6.68141 12.3166 6.51527 12.1504 6.31032 12.1504H2.27734C2.07239 12.1504 1.90625 12.3166 1.90625 12.5215C1.90625 12.7264 2.07239 12.8926 2.27734 12.8926Z" fill="white"/>
<path fill-rule="evenodd" clip-rule="evenodd" d="M14.5736 7.67229V1.44834C14.5736 0.782711 14.0315 0.241211 13.3652 0.241211H1.20735C0.541611 0.241211 0 0.782748 0 1.44834V5.85983L0 9.19136V13.6029C0 14.2691 0.541611 14.8111 1.20735 14.8111H8.03555C8.74445 17.0952 10.8778 18.7588 13.3926 18.7588C16.4845 18.7588 19 16.2439 19 13.1528C19 10.4666 17.1003 8.21598 14.5736 7.67229ZM0.742188 1.44834V5.85983V9.19136V13.6028C0.742188 13.8598 0.950853 14.0688 1.20735 14.0688H7.8604C7.81115 13.7706 7.7851 13.4647 7.7851 13.1528C7.7851 10.0616 10.3006 7.54675 13.3926 7.54675C13.5402 7.54675 13.6866 7.55261 13.8314 7.56386V1.44834C13.8314 1.19195 13.6223 0.983398 13.3652 0.983398H9.92316V5.79671C9.92316 6.08108 9.60057 6.26254 9.35735 6.11262L7.28628 4.83613L5.2152 6.11262C5.10072 6.18324 4.957 6.18628 4.83958 6.12075C4.72217 6.05521 4.6494 5.93123 4.6494 5.79674V0.983398H1.20735C0.950853 0.983398 0.742188 1.19195 0.742188 1.44834ZM7.48099 4.08433L9.18097 5.13212V0.983398H5.39158V5.13212L7.09156 4.08433C7.21095 4.01078 7.36161 4.01078 7.48099 4.08433ZM8.52729 13.1528C8.52729 15.8347 10.7098 18.0166 13.3926 18.0166C16.0753 18.0166 18.2578 15.8347 18.2578 13.1528C18.2578 10.4709 16.0753 8.28897 13.3926 8.28897C10.7098 8.28897 8.52729 10.4709 8.52729 13.1528Z" fill="white"/>
<path d="M14.0669 11.0035H12.6493L13.311 10.3427C13.4559 10.1978 13.4561 9.96284 13.3112 9.81782C13.1664 9.67279 12.9315 9.67272 12.7864 9.81752L11.4905 11.112C11.3474 11.2538 11.3474 11.4954 11.4905 11.6371L12.7864 12.9317C12.8589 13.0041 12.9538 13.0402 13.0487 13.0402C13.1437 13.0402 13.2387 13.0039 13.3112 12.9314C13.456 12.7864 13.4559 12.5514 13.311 12.4066L12.6493 11.7456H14.0669C14.9649 11.7456 15.6955 12.476 15.6955 13.3737C15.6955 14.2719 14.9649 15.0027 14.0669 15.0027H10.7187C10.5138 15.0027 10.3477 15.1689 10.3477 15.3738C10.3477 15.5787 10.5138 15.7449 10.7187 15.7449H14.0669C15.3742 15.7449 16.4377 14.6812 16.4377 13.3737C16.4376 12.0668 15.3742 11.0035 14.0669 11.0035Z" fill="white"/>
</svg>
