<svg width="19" height="19" viewBox="0 0 19 19" fill="none" xmlns="http://www.w3.org/2000/svg">
<g clip-path="url(#clip0)">
<path d="M4.362 8.70801H0.403658C0.185158 8.70801 0.0078125 8.88535 0.0078125 9.10385V18.6039C0.0078125 18.8223 0.185158 18.9997 0.403658 18.9997H4.362C4.5805 18.9997 4.75785 18.8223 4.75785 18.6038V9.10382C4.75781 8.88532 4.58128 8.70801 4.362 8.70801Z" fill="currentColor"/>
<path d="M11.4719 0H7.51352C7.29502 0 7.11768 0.177346 7.11768 0.395846V18.6042C7.11768 18.8227 7.29502 19 7.51352 19H11.4719C11.6904 19 11.8677 18.8227 11.8677 18.6042V0.395846C11.8677 0.177346 11.6904 0 11.4719 0Z" fill="currentColor"/>
<path d="M18.5969 3.95801H14.6385C14.42 3.95801 14.2427 4.13535 14.2427 4.35385V18.6039C14.2427 18.8224 14.42 18.9997 14.6385 18.9997H18.5969C18.8154 18.9997 18.9927 18.8224 18.9927 18.6039V4.35385C18.9927 4.13532 18.8154 3.95801 18.5969 3.95801Z" fill="currentColor"/>
</g>
<defs>
<clipPath id="clip0">
<rect width="19" height="19" fill="currentColor"/>
</clipPath>
</defs>
</svg>
