<svg width="76" height="13" viewBox="0 0 76 13" fill="none" xmlns="http://www.w3.org/2000/svg">
<path d="M8.4 7.632L6.992 3.784C6.92267 3.61333 6.85067 3.41067 6.776 3.176C6.70133 2.94133 6.62667 2.688 6.552 2.416C6.48267 2.688 6.41067 2.944 6.336 3.184C6.26133 3.41867 6.18933 3.624 6.12 3.8L4.72 7.632H8.4ZM12.2 12H10.536C10.3493 12 10.1973 11.9547 10.08 11.864C9.96267 11.768 9.87467 11.6507 9.816 11.512L8.952 9.152H4.16L3.296 11.512C3.25333 11.6347 3.17067 11.7467 3.048 11.848C2.92533 11.9493 2.77333 12 2.592 12H0.912L5.464 0.431999H7.656L12.2 12ZM16.0294 5.28H16.5334C16.736 5.28 16.904 5.25333 17.0374 5.2C17.1707 5.14133 17.2854 5.05067 17.3814 4.928L20.5734 0.888C20.7067 0.717333 20.8454 0.599999 20.9894 0.535999C21.1387 0.466666 21.3254 0.431999 21.5494 0.431999H23.4054L19.5094 5.24C19.28 5.53333 19.0427 5.74133 18.7974 5.864C18.9734 5.928 19.1307 6.01867 19.2694 6.136C19.4134 6.248 19.5494 6.39733 19.6774 6.584L23.6934 12H21.7974C21.5414 12 21.3494 11.9653 21.2214 11.896C21.0987 11.8213 20.9947 11.7147 20.9094 11.576L17.6374 7.304C17.536 7.16 17.4187 7.05867 17.2854 7C17.152 6.94133 16.96 6.912 16.7094 6.912H16.0294V12H13.8774V0.431999H16.0294V5.28ZM33.4061 2.2H29.9181V12H27.7661V2.2H24.2781V0.431999H33.4061V2.2ZM40.3869 7.632L38.9789 3.784C38.9095 3.61333 38.8375 3.41067 38.7629 3.176C38.6882 2.94133 38.6135 2.688 38.5389 2.416C38.4695 2.688 38.3975 2.944 38.3229 3.184C38.2482 3.41867 38.1762 3.624 38.1069 3.8L36.7069 7.632H40.3869ZM44.1869 12H42.5229C42.3362 12 42.1842 11.9547 42.0669 11.864C41.9495 11.768 41.8615 11.6507 41.8029 11.512L40.9389 9.152H36.1469L35.2829 11.512C35.2402 11.6347 35.1575 11.7467 35.0349 11.848C34.9122 11.9493 34.7602 12 34.5789 12H32.8989L37.4509 0.431999H39.6429L44.1869 12ZM49.3602 5.936C49.7656 5.936 50.1176 5.88533 50.4162 5.784C50.7202 5.68267 50.9682 5.544 51.1602 5.368C51.3576 5.18667 51.5042 4.97333 51.6002 4.728C51.6962 4.48267 51.7442 4.21333 51.7442 3.92C51.7442 3.33333 51.5496 2.88267 51.1602 2.568C50.7762 2.25333 50.1869 2.096 49.3922 2.096H48.0162V5.936H49.3602ZM54.8962 12H52.9522C52.5842 12 52.3176 11.856 52.1522 11.568L49.7202 7.864C49.6296 7.72533 49.5282 7.62667 49.4162 7.568C49.3096 7.50933 49.1496 7.48 48.9362 7.48H48.0162V12H45.8642V0.431999H49.3922C50.1762 0.431999 50.8482 0.514666 51.4082 0.679999C51.9736 0.839999 52.4349 1.06667 52.7922 1.36C53.1549 1.65333 53.4216 2.00533 53.5922 2.416C53.7629 2.82133 53.8482 3.26933 53.8482 3.76C53.8482 4.14933 53.7896 4.51733 53.6722 4.864C53.5602 5.21067 53.3949 5.52533 53.1762 5.808C52.9629 6.09067 52.6962 6.33867 52.3762 6.552C52.0616 6.76533 51.7016 6.93333 51.2962 7.056C51.4349 7.136 51.5629 7.232 51.6802 7.344C51.7976 7.45067 51.9042 7.57867 52.0002 7.728L54.8962 12ZM61.1878 10.264C61.6038 10.264 61.9744 10.1947 62.2998 10.056C62.6304 9.91733 62.9078 9.72267 63.1318 9.472C63.3558 9.22133 63.5264 8.91733 63.6438 8.56C63.7664 8.20267 63.8278 7.80267 63.8278 7.36V0.431999H65.9798V7.36C65.9798 8.048 65.8678 8.68533 65.6438 9.272C65.4251 9.85333 65.1078 10.3573 64.6918 10.784C64.2811 11.2053 63.7798 11.536 63.1878 11.776C62.5958 12.0107 61.9291 12.128 61.1878 12.128C60.4411 12.128 59.7718 12.0107 59.1798 11.776C58.5878 11.536 58.0838 11.2053 57.6678 10.784C57.2571 10.3573 56.9398 9.85333 56.7158 9.272C56.4971 8.68533 56.3878 8.048 56.3878 7.36V0.431999H58.5398V7.352C58.5398 7.79467 58.5984 8.19467 58.7158 8.552C58.8384 8.90933 59.0118 9.216 59.2358 9.472C59.4651 9.72267 59.7424 9.91733 60.0678 10.056C60.3984 10.1947 60.7718 10.264 61.1878 10.264ZM75.0467 2.536C74.9827 2.648 74.9134 2.73067 74.8387 2.784C74.7694 2.832 74.6814 2.856 74.5747 2.856C74.4627 2.856 74.3401 2.816 74.2067 2.736C74.0787 2.65067 73.9241 2.55733 73.7427 2.456C73.5614 2.35467 73.3481 2.264 73.1027 2.184C72.8627 2.09867 72.5774 2.056 72.2467 2.056C71.9481 2.056 71.6867 2.09333 71.4627 2.168C71.2387 2.23733 71.0494 2.336 70.8947 2.464C70.7454 2.592 70.6334 2.74667 70.5587 2.928C70.4841 3.104 70.4467 3.29867 70.4467 3.512C70.4467 3.784 70.5214 4.01067 70.6707 4.192C70.8254 4.37333 71.0281 4.528 71.2787 4.656C71.5294 4.784 71.8147 4.89867 72.1347 5C72.4547 5.10133 72.7827 5.21067 73.1187 5.328C73.4547 5.44 73.7827 5.57333 74.1027 5.728C74.4227 5.87733 74.7081 6.06933 74.9587 6.304C75.2094 6.53333 75.4094 6.816 75.5587 7.152C75.7134 7.488 75.7907 7.896 75.7907 8.376C75.7907 8.89867 75.7001 9.38933 75.5187 9.848C75.3427 10.3013 75.0814 10.6987 74.7347 11.04C74.3934 11.376 73.9747 11.6427 73.4787 11.84C72.9827 12.032 72.4147 12.128 71.7747 12.128C71.4067 12.128 71.0441 12.0907 70.6867 12.016C70.3294 11.9467 69.9854 11.8453 69.6547 11.712C69.3294 11.5787 69.0227 11.4187 68.7347 11.232C68.4467 11.0453 68.1907 10.8373 67.9667 10.608L68.5987 9.576C68.6521 9.50133 68.7214 9.44 68.8067 9.392C68.8921 9.33867 68.9827 9.312 69.0787 9.312C69.2121 9.312 69.3561 9.368 69.5107 9.48C69.6654 9.58667 69.8494 9.70667 70.0627 9.84C70.2761 9.97333 70.5241 10.096 70.8067 10.208C71.0947 10.3147 71.4387 10.368 71.8387 10.368C72.4521 10.368 72.9267 10.224 73.2627 9.936C73.5987 9.64267 73.7667 9.224 73.7667 8.68C73.7667 8.376 73.6894 8.128 73.5347 7.936C73.3854 7.744 73.1854 7.584 72.9347 7.456C72.6841 7.32267 72.3987 7.21067 72.0787 7.12C71.7587 7.02933 71.4334 6.93067 71.1027 6.824C70.7721 6.71733 70.4467 6.58933 70.1267 6.44C69.8067 6.29067 69.5214 6.096 69.2707 5.856C69.0201 5.616 68.8174 5.31733 68.6627 4.96C68.5134 4.59733 68.4387 4.152 68.4387 3.624C68.4387 3.20267 68.5214 2.792 68.6867 2.392C68.8574 1.992 69.1027 1.63733 69.4227 1.328C69.7427 1.01867 70.1374 0.770666 70.6067 0.584C71.0761 0.397333 71.6147 0.304 72.2227 0.304C72.9054 0.304 73.5347 0.410666 74.1107 0.624C74.6867 0.837333 75.1774 1.136 75.5827 1.52L75.0467 2.536Z" fill="currentColor"/>
</svg>
