<svg xmlns="http://www.w3.org/2000/svg" xmlns:xlink="http://www.w3.org/1999/xlink"><symbol id="arrow-right" viewBox="0 0 6 10">
  <path fill-rule="evenodd" clip-rule="evenodd" d="M.4697 9.5303a.75.75 0 010-1.0606L3.9393 5 .4697 1.5303A.75.75 0 111.5303.4697l4 4a.75.75 0 010 1.0606l-4 4a.75.75 0 01-1.0606 0z" fill="currentColor"/>
</symbol><symbol id="icon-close" viewBox="0 0 20 20"><path d="M.293 18.291a1 1 0 101.414 1.414L10 11.413l8.292 8.292a1 1 0 101.414-1.414l-8.292-8.292 8.292-8.292A1 1 0 1018.291.293L9.999 8.585 1.707.293A1 1 0 10.293 1.707L8.585 10 .293 18.291z"/></symbol><symbol id="icon-home" viewBox="0 0 17 15">
<path d="M8.49998 0.275391L0 7.92539H2.55V14.7254H6.80001V9.6254H10.2V14.7254H14.45V7.92539H17L8.49998 0.275391Z" fill="currentColor"/>
</symbol></svg>