<svg viewBox="0 0 15 15" fill="none" xmlns="http://www.w3.org/2000/svg">
  <g clip-path="url(#clip0)" fill="currentColor">
    <path d="M13.7269 8.9817a.5859.5859 0 10-1.0865.4392l.6901 1.707-2.0495-.9035a.586.586 0 00-.4663-.0028c-.7005.2989-1.4508.4504-2.2302.4504-3.137 0-5.2442-2.456-5.2442-4.75 0-2.6192 2.3525-4.7501 5.2442-4.7501 2.8916 0 5.2441 2.1309 5.2441 4.75 0 .2044-.019.449-.0522.6713a.586.586 0 001.1591.173c.0419-.281.065-.5809.065-.8443 0-1.5916-.674-3.0852-1.898-4.2053C11.8931.6096 10.2886 0 8.5845 0s-3.3086.6096-4.518 1.7166c-1.0938 1.001-1.748 2.3002-1.8748 3.7012C.816 6.3288.0005 7.7886.0005 9.361c0 .9822.3095 1.9142.8985 2.7163l-.8558 2.117a.5859.5859 0 00.7796.7558l2.4676-1.0878c.6208.2311 1.277.3481 1.9542.3481.0147 0 .029-.0012.0434-.0022.9796-.0075 1.932-.2651 2.7568-.7473.7388-.432 1.3465-1.0254 1.7726-1.7261a6.745 6.745 0 001.2172-.3384l3.1436 1.3857a.5859.5859 0 00.7796-.7557l-1.2309-3.0448zM5.2447 13.037c-.008 0-.0158.0009-.0238.0012-.5983-.0031-1.1741-.1207-1.712-.3501a.5856.5856 0 00-.4662.0028l-1.3722.6048.4427-1.0949a.586.586 0 00-.0974-.5997c-.5518-.6474-.8434-1.422-.8434-2.2401 0-.9364.3939-1.8236 1.083-2.4963.2146 1.1697.82 2.2886 1.7333 3.1675 1.1365 1.0938 2.6397 1.7274 4.2629 1.8037-.762.7501-1.8526 1.2011-3.007 1.2011z"/>
    <path d="M8.5557 6.5332a.586.586 0 100-1.1719.586.586 0 000 1.1719zM10.8994 6.5332a.586.586 0 100-1.172.586.586 0 000 1.172zM6.212 6.5332a.586.586 0 100-1.1719.586.586 0 000 1.1719z"/>
  </g>
  <defs>
    <clipPath id="clip0">
      <path fill="#fff" d="M0 0h15v15H0z"/>
    </clipPath>
  </defs>
</svg>
