<svg width="19" height="19" viewBox="0 0 19 19" fill="none" xmlns="http://www.w3.org/2000/svg">
<path d="M18.9722 6.29112L18.9594 6.21979C18.9571 6.20877 18.9559 6.19775 18.9536 6.18703L17.6212 2.96894V1.38574H1.35679V2.96898L0.0463867 6.18677C0.0434922 6.19953 0.041748 6.2123 0.0394102 6.22473L0.0272383 6.29112C0.00927734 6.40623 0 6.52424 0 6.64455C0 7.50504 0.480121 8.25302 1.1875 8.63539V17.6144H17.8125V8.63539C18.5193 8.25298 19 7.505 19 6.64455C19 6.52424 18.9901 6.40623 18.9722 6.29112ZM18.0775 6.13574H15.1691L14.8194 3.78538H17.1202L18.0775 6.13574ZM2.14886 2.17721H16.8297V2.96898H2.14886V2.17721ZM14.4866 6.92721L14.5295 7.21451L14.2952 7.52616C14.0146 7.90014 13.5855 8.11467 13.1188 8.11467C12.652 8.11467 12.2229 7.90014 11.9423 7.52616L11.7034 7.20783L11.6895 6.92721H14.4866ZM11.6506 6.13574L11.5352 3.78538H14.0187L14.3689 6.13574H11.6506ZM10.8968 6.92717L10.9107 7.21421L10.6759 7.52616C10.3953 7.90014 9.9662 8.11467 9.5 8.11467C9.03264 8.11467 8.60414 7.90014 8.32293 7.52616L8.08287 7.20579L8.09678 6.92717H10.8968ZM8.13682 6.13574L8.25569 3.78538H10.7432L10.858 6.13574H8.13682ZM4.63518 6.13574L4.98075 3.78538H7.46359L7.34413 6.13574H4.63518ZM7.30357 6.92721L7.28906 7.21741L7.05713 7.52616C6.77591 7.90014 6.34741 8.11467 5.88065 8.11467C5.41389 8.11467 4.98538 7.90014 4.70417 7.52616L4.47572 7.22205L4.51922 6.92721H7.30357ZM1.87926 3.78538H4.18063L3.83507 6.13574H0.921982L1.87926 3.78538ZM0.818707 6.92721H3.71903L3.65698 7.23481L3.43837 7.52619C3.15715 7.90018 2.72865 8.11471 2.2613 8.11471C1.54757 8.11471 0.950928 7.60331 0.818707 6.92721ZM15.4375 16.8235H12.2704V14.0519H12.6665C12.8851 14.0519 13.0625 13.8751 13.0625 13.6565C13.0625 13.4379 12.8851 13.261 12.6665 13.261H12.2704V10.4894H15.4375V16.8235ZM17.0205 16.8235H17.0204H16.229V9.69854H11.479V16.8235H1.97897V8.88881C2.07115 8.90039 2.16626 8.90651 2.26133 8.90651C3.00122 8.90651 3.65872 8.55108 4.07101 8.00168C4.48385 8.55108 5.1408 8.90651 5.88069 8.90651C6.62057 8.90651 7.27752 8.55108 7.69036 8.00168C8.10261 8.55108 8.76015 8.90651 9.50004 8.90651C10.2399 8.90651 10.8963 8.55108 11.3091 8.00168C11.722 8.55108 12.3789 8.90651 13.1188 8.90651C13.8587 8.90651 14.5156 8.55108 14.9285 8.00168C15.3413 8.55108 15.9977 8.90651 16.7376 8.90651C16.8338 8.90651 16.9277 8.90043 17.0205 8.88881V16.8235ZM16.7375 8.11471C16.2713 8.11471 15.8422 7.90018 15.5616 7.52619L15.3314 7.22063L15.2867 6.92725H18.1801C18.0479 7.60331 17.4518 8.11471 16.7375 8.11471Z" fill="white"/>
<path d="M2.77051 9.69824V15.2391H10.6876V9.69824H2.77051ZM9.89551 14.4482H3.56257V10.4891H9.89551V14.4482Z" fill="white"/>
<path d="M9.10107 12.4688C8.99149 12.4688 8.89233 12.5128 8.82101 12.5847L8.02954 13.3768C7.95762 13.4481 7.91357 13.5473 7.91357 13.6562C7.91357 13.8749 8.09099 14.0517 8.30901 14.0517C8.4186 14.0517 8.51775 14.0076 8.58908 13.9357L9.38054 13.1448C9.45246 13.0729 9.49651 12.9738 9.49651 12.8642C9.49651 12.6462 9.31969 12.4688 9.10107 12.4688Z" fill="white"/>
<path d="M9.10111 10.8857C8.99152 10.8857 8.89237 10.9298 8.82104 11.0017L6.44604 13.3761C6.37472 13.4474 6.33008 13.5472 6.33008 13.6562C6.33008 13.8748 6.5075 14.0516 6.72611 14.0516C6.83514 14.0516 6.93426 14.0075 7.00558 13.9357L9.38058 11.5612C9.4525 11.4899 9.49655 11.3902 9.49655 11.2812C9.49655 11.0626 9.31972 10.8857 9.10111 10.8857Z" fill="white"/>
</svg>
