<svg width="19" height="19" viewBox="0 0 19 19" fill="none" xmlns="http://www.w3.org/2000/svg">
<g clip-path="url(#clip3)">
<path d="M18.355 8.77629L17.0612 8.21635L15.9626 6.07841C15.6656 5.49302 15.0633 5.12821 14.4058 5.13245H12.5139V4.59797C12.5139 3.6308 11.7418 2.8418 10.7747 2.8418H1.73083C0.763664 2.8418 0.000112869 3.63504 0.000112869 4.59797V12.7849C-0.00837103 13.3746 0.462486 13.8581 1.05212 13.8666C1.05636 13.8666 1.0606 13.8666 1.06908 13.8666H1.29391C1.29391 13.909 1.28967 13.926 1.28967 13.9515C1.28542 15.1647 2.26532 16.153 3.47851 16.1573C4.69171 16.1615 5.68009 15.1816 5.68433 13.9684C5.68433 13.96 5.68433 13.9557 5.68433 13.9472C5.68433 13.9175 5.68433 13.9048 5.68009 13.8624H12.989C12.989 13.9048 12.989 13.9218 12.989 13.9472C12.9847 15.1604 13.9646 16.1488 15.1778 16.153C16.391 16.1573 17.3794 15.1774 17.3836 13.9642C17.3836 13.9557 17.3836 13.9515 17.3836 13.943C17.3836 13.9133 17.3836 13.9006 17.3836 13.8581H17.9308C18.5205 13.8581 18.9998 13.3788 18.9998 12.7892C18.9998 12.7849 18.9998 12.7807 18.9998 12.7722V9.76042C19.0083 9.34471 18.7538 8.95021 18.355 8.77629ZM3.49124 15.3131C2.74466 15.3131 2.1423 14.7108 2.1423 13.9642C2.1423 13.2176 2.74466 12.6153 3.49124 12.6153C4.23782 12.6153 4.84018 13.2176 4.84018 13.9642C4.84018 14.7065 4.23358 15.3131 3.49124 15.3131ZM11.6655 13.0267H5.48071C5.12439 12.2504 4.34387 11.7541 3.49124 11.7584C2.63437 11.7541 1.85809 12.2462 1.50176 13.0267H1.06908C0.937584 13.0267 0.848503 12.9249 0.848503 12.7934V10.6088H11.6655V13.0267ZM11.6655 4.60221V9.76042H0.848503V4.60221C0.848503 4.1059 1.23452 3.69443 1.73083 3.69443H10.7747C11.271 3.69867 11.6697 4.1059 11.6655 4.59797V4.60221ZM12.5139 5.98508H14.4058C14.7409 5.98084 15.0548 6.16325 15.2118 6.46442L16.0601 8.10606H12.5139V5.98508ZM15.1905 15.3131C14.444 15.3131 13.8416 14.7108 13.8416 13.9642C13.8416 13.2176 14.444 12.6153 15.1905 12.6153C15.9371 12.6153 16.5395 13.2176 16.5395 13.9642C16.5395 14.7065 15.9371 15.3131 15.1905 15.3131ZM18.1557 12.7934C18.1557 12.9249 18.0666 13.0267 17.9351 13.0267H17.18C16.6667 11.9281 15.3602 11.453 14.2616 11.9662C13.7949 12.1826 13.4174 12.5601 13.2011 13.0267H12.5139V8.95445H16.671L18.0199 9.54832C18.1048 9.59074 18.1599 9.68407 18.1557 9.77739V12.7934Z" fill="white"/>
</g>
<defs>
<clipPath id="clip3">
<rect width="19" height="19" fill="white"/>
</clipPath>
</defs>
</svg>
