<svg width="15" height="15" viewBox="0 0 15 15" fill="none" xmlns="http://www.w3.org/2000/svg">
<path d="M15 0H7.01033L4.99509 2.01524V2.0741H2.01524L0 4.08932V15H10.0049V12.9259H15V0ZM7.30175 0.951533V2.30669H5.94662L7.30175 0.951533ZM2.30666 3.02561V4.38076H0.951533L2.30666 3.02561ZM9.12601 14.1211H0.878906V5.25967H3.18557V2.95301H4.99509V6.13857H2.14356V7.01748H4.99509V7.89639H2.14356V8.77529H4.99509V9.6542H2.14356V10.5331H4.99509V12.9259H9.12601V14.1211ZM14.1211 12.047H5.87399V3.1856H8.18065V0.878906H14.1211V12.047Z" fill="currentColor"/>
<path d="M7.13867 4.06445H12.8564V4.94336H7.13867V4.06445Z" fill="currentColor"/>
<path d="M7.13867 5.82227H12.8564V6.70117H7.13867V5.82227Z" fill="currentColor"/>
<path d="M7.13867 7.58008H12.8564V8.45898H7.13867V7.58008Z" fill="currentColor"/>
</svg>
