<svg width="15" height="15" viewBox="0 0 15 15" fill="none" xmlns="http://www.w3.org/2000/svg">
<path d="M13.5938 9.91031V7.5C13.5938 7.24125 13.3837 7.03125 13.125 7.03125H7.96875V5.08969C8.775 4.87969 9.375 4.15219 9.375 3.28125C9.375 2.24719 8.53406 1.40625 7.5 1.40625C6.46594 1.40625 5.625 2.24719 5.625 3.28125C5.625 4.15219 6.225 4.87969 7.03125 5.08969V7.03125H1.875C1.61625 7.03125 1.40625 7.24125 1.40625 7.5V9.91031C0.6 10.1203 0 10.8478 0 11.7188C0 12.7528 0.840937 13.5938 1.875 13.5938C2.90906 13.5938 3.75 12.7528 3.75 11.7188C3.75 10.8478 3.15 10.1203 2.34375 9.91031V7.96875H7.03125V9.91031C6.225 10.1203 5.625 10.8478 5.625 11.7188C5.625 12.7528 6.46594 13.5938 7.5 13.5938C8.53406 13.5938 9.375 12.7528 9.375 11.7188C9.375 10.8478 8.775 10.1203 7.96875 9.91031V7.96875H12.6562V9.91031C11.85 10.1203 11.25 10.8478 11.25 11.7188C11.25 12.7528 12.0909 13.5938 13.125 13.5938C14.1591 13.5938 15 12.7528 15 11.7188C15 10.8478 14.4 10.1203 13.5938 9.91031Z" fill="currentColor"/>
</svg>
