<svg width="15" height="15" viewBox="0 0 15 15" fill="none" xmlns="http://www.w3.org/2000/svg">
<path d="M4.65063 4.31045L5.53785 3.42322L2.76893 0.654297L0 3.42322L0.887223 4.31045L2.14169 3.05598V11.9445L0.887223 10.69L0 11.5773L2.76893 14.3462L5.53785 11.5773L4.65063 10.69L3.39616 11.9445V3.05598L4.65063 4.31045Z" fill="currentColor"/>
<path d="M15.0002 0.600586H6.84619V1.85506H15.0002V0.600586Z" fill="currentColor"/>
<path d="M15.0002 6.87305H6.84619V8.12752H15.0002V6.87305Z" fill="currentColor"/>
<path d="M12.4913 3.73633H6.84619V4.9908H12.4913V3.73633Z" fill="currentColor"/>
<path d="M12.4913 10.0088H6.84619V11.2633H12.4913V10.0088Z" fill="currentColor"/>
<path d="M15.0002 13.1455H6.84619V14.4H15.0002V13.1455Z" fill="currentColor"/>
</svg>
