<svg width="19" height="19" viewBox="0 0 19 19" fill="none" xmlns="http://www.w3.org/2000/svg">
<g clip-path="url(#clip0)">
<path fill-rule="evenodd" clip-rule="evenodd" d="M18.6421 2.88763L18.8922 2.63748C19.0371 2.49257 19.0371 2.2576 18.8922 2.11265C18.7473 1.96778 18.5123 1.96778 18.3674 2.11265L18.1172 2.3628L17.8672 2.1128C17.7976 2.04322 17.7032 2.00411 17.6048 2.00411H17.1967L15.3013 0.108692C15.2316 0.0391128 15.1373 0 15.0389 0H1.33742C0.600509 0 0.000976562 0.599495 0.000976562 1.33644V8.29069C0.000976562 9.0276 0.600509 9.62713 1.33742 9.62713H4.57035L2.39632 11.8012C2.14391 12.0536 2.0049 12.3892 2.0049 12.7462C2.0049 13.1032 2.14391 13.4388 2.39632 13.6912L7.3137 18.6086C7.56612 18.861 7.90173 19 8.25872 19C8.61571 19 8.95132 18.861 9.20373 18.6086L12.8867 14.9257L15.2483 12.5642L18.8921 8.92032C18.9617 8.8507 19.0008 8.75634 19.0008 8.65792V3.40003C19.0008 3.30162 18.9617 3.20725 18.8921 3.13763L18.6421 2.88763ZM8.6789 18.0838L12.3619 14.4009L14.7234 12.0393L18.2586 8.50414V3.55381L18.1173 3.4125L17.2592 4.27061C17.3288 4.41593 17.368 4.57861 17.368 4.75028C17.368 5.36413 16.8685 5.86355 16.2547 5.86355C15.6408 5.86355 15.1414 5.36413 15.1414 4.75028C15.1414 4.13642 15.6408 3.63701 16.2547 3.63701C16.4264 3.63701 16.589 3.67609 16.7344 3.74578L17.5925 2.88767L17.4512 2.74636H12.5008L2.92112 12.326C2.8089 12.4382 2.74708 12.5875 2.74708 12.7462C2.74708 12.9049 2.8089 13.0542 2.92112 13.1664L7.83853 18.0838C7.95075 18.196 8.1 18.2578 8.25872 18.2578C8.41743 18.2578 8.56668 18.196 8.6789 18.0838ZM6.29376 6.28744C6.29376 6.49213 6.46027 6.65864 6.66496 6.65864C6.86966 6.65864 7.03616 6.4921 7.03616 6.28744C7.03616 6.08271 6.86966 5.9162 6.66496 5.9162C6.46027 5.9162 6.29376 6.08271 6.29376 6.28744ZM12.0847 2.11283C12.1543 2.04326 12.2487 2.00414 12.3471 2.00414H16.1471L14.8851 0.742179H1.33742C1.00975 0.742179 0.743155 1.00877 0.743155 1.33644V8.29066C0.743155 8.61833 1.00975 8.88492 1.33742 8.88492H5.31256L6.80594 7.39154C6.75974 7.39741 6.71276 7.40078 6.665 7.40078C6.05107 7.40078 5.55162 6.90133 5.55162 6.2874C5.55162 5.67347 6.05111 5.17399 6.665 5.17399C7.27893 5.17399 7.77838 5.67347 7.77838 6.2874C7.77838 6.33516 7.775 6.38214 7.76914 6.42834L12.0847 2.11283ZM15.8836 4.7502C15.8836 4.95482 16.0501 5.12129 16.2547 5.12129C16.4593 5.12129 16.6258 4.95482 16.6257 4.75017C16.6257 4.66548 16.5969 4.58756 16.549 4.52503C16.5361 4.51519 16.5236 4.50473 16.5119 4.493C16.5001 4.48128 16.4897 4.46873 16.4798 4.45589C16.4173 4.40795 16.3394 4.37911 16.2547 4.37911C16.0501 4.37911 15.8836 4.54559 15.8836 4.7502Z" fill="white"/>
<path d="M12.3424 10.9781C12.4408 10.9781 12.5352 10.939 12.6048 10.8694L13.4444 10.0297C13.5893 9.88478 13.5893 9.6498 13.4444 9.50486C13.2995 9.35998 13.0645 9.35998 12.9196 9.50486L12.3424 10.0822L10.5055 8.24537C10.3607 8.1005 10.1257 8.1005 9.98075 8.24537C9.83584 8.39028 9.83584 8.62526 9.98075 8.77021L12.08 10.8694C12.1496 10.939 12.244 10.9781 12.3424 10.9781Z" fill="white"/>
<path d="M15.2287 7.72055C15.0838 7.57568 14.8488 7.57568 14.7039 7.72055L14.2315 8.19288L13.7067 7.66812L14.1791 7.1958C14.324 7.05088 14.324 6.81591 14.1791 6.67096C14.0342 6.52609 13.7992 6.52609 13.6542 6.67096L13.1819 7.14329L12.6571 6.61849L13.1294 6.14617C13.2743 6.00126 13.2744 5.76628 13.1294 5.62134C12.9845 5.4765 12.7496 5.47646 12.6046 5.62134L11.8699 6.35606C11.8003 6.42564 11.7612 6.52004 11.7612 6.61845C11.7612 6.71687 11.8003 6.81124 11.8699 6.88085L13.9691 8.98003C14.0416 9.05247 14.1366 9.08872 14.2315 9.08872C14.3265 9.08872 14.4215 9.05247 14.4939 8.98003L15.2287 8.24531C15.3736 8.10044 15.3736 7.86546 15.2287 7.72055Z" fill="white"/>
<path d="M11.1242 11.9869C11.3068 12.0799 11.5303 12.0073 11.6233 11.8247C11.7164 11.642 11.6437 11.4186 11.4611 11.3256L8.67967 9.90862C8.53643 9.83563 8.3625 9.8632 8.24884 9.97686C8.13517 10.0905 8.1076 10.2645 8.18059 10.4077L9.59756 13.1891C9.66309 13.3178 9.79335 13.3919 9.9285 13.3918C9.98516 13.3918 10.0427 13.3788 10.0966 13.3513C10.2793 13.2583 10.3519 13.0349 10.2589 12.8522L10.1451 12.6288L10.9009 11.8731L11.1242 11.9869ZM9.79082 11.9335L9.36021 11.0882L10.2056 11.5189L9.79082 11.9335Z" fill="white"/>
<path d="M7.56696 14.8581C7.42205 15.003 7.42201 15.238 7.56696 15.3829C7.63943 15.4553 7.7344 15.4916 7.82936 15.4916C7.92432 15.4916 8.01932 15.4553 8.09175 15.3829L8.61659 14.8581C9.05065 14.424 9.05065 13.7178 8.61659 13.2837C8.20401 12.8711 7.54573 12.851 7.10878 13.2227C7.09519 13.233 7.08198 13.2439 7.06963 13.2563L7.04217 13.2837C6.97207 13.3538 6.87889 13.3924 6.77977 13.3924C6.68065 13.3924 6.58747 13.3538 6.51737 13.2837C6.37268 13.139 6.37268 12.9036 6.51737 12.7589L7.04217 12.2341C7.18708 12.0891 7.18711 11.8542 7.04217 11.7092C6.89726 11.5644 6.66228 11.5644 6.51737 11.7092L5.99254 12.234C5.55848 12.6681 5.55848 13.3744 5.99254 13.8085C6.20284 14.0187 6.48238 14.1345 6.77973 14.1345C7.07668 14.1345 7.35588 14.019 7.56614 13.8092C7.5664 13.809 7.5667 13.8087 7.56696 13.8085C7.71161 13.6638 7.94707 13.6638 8.09175 13.8085C8.16185 13.8786 8.20045 13.9717 8.20045 14.0708C8.20045 14.17 8.16185 14.2632 8.09175 14.3332L7.56696 14.8581Z" fill="white"/>
<path d="M6.35824 2.39565C6.17978 2.29493 5.95342 2.35787 5.85267 2.53637L3.45914 6.77621C3.35839 6.9547 3.42136 7.18103 3.59986 7.28178C3.65753 7.31433 3.72013 7.3298 3.78195 7.3298C3.91146 7.3298 4.03722 7.26189 4.10543 7.14106L6.49896 2.90122C6.59971 2.72273 6.53673 2.49636 6.35824 2.39565Z" fill="white"/>
<path d="M4.64528 3.33995C4.64528 2.72602 4.14582 2.22656 3.53189 2.22656C2.91795 2.22656 2.41846 2.72602 2.41846 3.33995C2.41846 3.95389 2.91791 4.45338 3.53185 4.45338C4.14579 4.45338 4.64528 3.95389 4.64528 3.33995ZM3.16064 3.33995C3.16064 3.13526 3.32715 2.96875 3.53185 2.96875C3.73654 2.96875 3.90305 3.13526 3.90305 3.33995C3.90305 3.54469 3.73654 3.71119 3.53185 3.71119C3.32715 3.71119 3.16064 3.54469 3.16064 3.33995Z" fill="white"/>
<path d="M13.8042 13.1113C13.7062 13.1113 13.6109 13.151 13.5418 13.2201C13.4728 13.2891 13.4331 13.3848 13.4331 13.4824C13.4331 13.5801 13.4728 13.6758 13.5418 13.7448C13.6109 13.8138 13.7062 13.8535 13.8042 13.8535C13.9018 13.8535 13.9975 13.8138 14.0666 13.7448C14.1356 13.6758 14.1753 13.5801 14.1753 13.4824C14.1753 13.3848 14.1356 13.2891 14.0666 13.2201C13.9975 13.1511 13.9018 13.1113 13.8042 13.1113Z" fill="white"/>
</g>
<defs>
<clipPath id="clip0">
<rect width="19" height="19" fill="white"/>
</clipPath>
</defs>
</svg>
