<svg width="16" height="16" viewBox="0 0 16 16" fill="none" xmlns="http://www.w3.org/2000/svg">
<g clip-path="url(#clip0)">
<path d="M13.6599 2.34158C10.5384 -0.779225 5.46204 -0.779225 2.34058 2.34158C-0.779541 5.46239 -0.779541 10.5401 2.34058 13.6609C3.90131 15.221 5.95093 16.0006 8.00057 16.0006C10.0502 16.0006 12.0992 15.2209 13.6599 13.6609C16.7807 10.5401 16.7807 5.46239 13.6599 2.34158ZM11.3014 10.3593C11.5622 10.6201 11.5622 11.0417 11.3014 11.3024C11.1714 11.4325 11.0006 11.4979 10.8299 11.4979C10.6591 11.4979 10.4884 11.4325 10.3583 11.3024L8.00054 8.94399L5.64344 11.3018C5.51272 11.4318 5.34195 11.4972 5.17187 11.4972C5.00114 11.4972 4.83037 11.4318 4.70031 11.3018C4.43953 11.041 4.43953 10.6188 4.70031 10.3587L7.05741 8.00089L4.69965 5.64313C4.43887 5.38235 4.43887 4.96015 4.69965 4.70003C4.95977 4.43925 5.38197 4.43925 5.64275 4.70003L8.00051 7.05779L10.3583 4.70003C10.6191 4.43925 11.0406 4.43925 11.3014 4.70003C11.5622 4.96015 11.5622 5.38235 11.3014 5.64313L8.94361 8.00089L11.3014 10.3593Z" fill="currentColor"/>
</g>
<defs>
<clipPath id="clip0">
<rect width="16" height="16" fill="white"/>
</clipPath>
</defs>
</svg>
