<svg width="15" height="15" viewBox="0 0 15 15" fill="none" xmlns="http://www.w3.org/2000/svg">
<g clip-path="url(#clip0)">
<path d="M14.8766 7.22731L13.0833 5.43402C12.9241 5.27463 12.645 5.27463 12.486 5.43402L12.2593 5.66061C12.0947 5.82524 12.0947 6.08939 12.2593 6.2539L12.9261 6.9167H8.08505V2.08513L8.74993 2.75988C8.9092 2.91903 9.18334 2.91903 9.34225 2.75988L9.56664 2.5333C9.73139 2.36854 9.72993 2.10049 9.5653 1.93586L7.7692 0.135373C7.68993 0.056349 7.58359 0.0078125 7.4703 0.0078125H7.45798C7.34481 0.0078125 7.23884 0.056227 7.15969 0.135373L5.40091 1.89671C5.32128 1.97622 5.27738 2.08342 5.27738 2.19659C5.27738 2.30951 5.32128 2.41634 5.40091 2.49586L5.6275 2.72281C5.78677 2.88195 6.07298 2.8822 6.23201 2.72293L6.91396 2.04817V6.9167H2.06702L2.74202 6.24573C2.82153 6.16621 2.86543 6.06195 2.86543 5.94902C2.86543 5.83609 2.82153 5.73073 2.74189 5.65146L2.51519 5.42524C2.35604 5.26622 2.07702 5.2667 1.91812 5.42548L0.122509 7.22109C0.041046 7.30255 -0.00249049 7.41146 -0.000417327 7.52353C-0.00249049 7.63987 0.0409241 7.74877 0.122387 7.83011L1.88092 9.58901C2.04019 9.74816 2.31933 9.74816 2.47836 9.58901L2.70519 9.36218C2.78458 9.28292 2.82848 9.1767 2.82848 9.06377C2.82848 8.95048 2.78458 8.84328 2.70519 8.76389L2.03019 8.08792H6.91384V12.9669L6.20237 12.263C6.04347 12.1039 5.76067 12.1039 5.60177 12.263L5.37311 12.4899C5.29372 12.5691 5.24896 12.6753 5.24896 12.7884C5.24896 12.9013 5.29238 13.0074 5.37177 13.0869L7.15371 14.8691C7.23286 14.9481 7.33871 14.9919 7.45554 14.9919C7.45627 14.9914 7.46286 14.9919 7.46384 14.9919C7.57701 14.9919 7.6831 14.9483 7.76237 14.8691L9.55591 13.0755C9.63517 12.9961 9.6792 12.8899 9.6792 12.7769C9.6792 12.6638 9.63529 12.5577 9.55591 12.4783L9.32908 12.2514C9.17005 12.0923 8.90091 12.0923 8.74176 12.2514L8.08505 12.9182V8.0878H12.9748L12.2707 8.79304C12.191 8.87255 12.1472 8.97938 12.1472 9.09243C12.1472 9.20548 12.1909 9.3117 12.2707 9.39121L12.4975 9.61816C12.6564 9.77743 12.9357 9.77743 13.0946 9.61816L14.8766 7.83609C14.9581 7.75487 15.0015 7.64572 14.9994 7.53377C15.0016 7.41743 14.9581 7.30865 14.8766 7.22731Z" fill="currentColor"/>
</g>
<defs>
<clipPath id="clip0">
<rect width="15" height="15" fill="white"/>
</clipPath>
</defs>
</svg>
