<svg width="19" height="19" viewBox="0 0 19 19" fill="none" xmlns="http://www.w3.org/2000/svg">
<path fill-rule="evenodd" clip-rule="evenodd" d="M16.7483 15.7259C16.7061 13.1437 14.066 12.3808 12.1382 11.8238C11.9133 11.7588 11.697 11.6963 11.4943 11.6338V10.5686C11.8884 10.3216 12.2337 10.0037 12.5123 9.63282H13.6866C14.2612 9.63282 14.7288 9.16527 14.7288 8.59063V7.32906C14.7984 7.16667 14.8371 6.98795 14.8371 6.80028V6.40792C14.8371 6.22045 14.7984 6.04184 14.7288 5.87956V5.22873C14.7288 2.34562 12.3832 0 9.50015 0C6.61763 0 4.27257 2.34562 4.27257 5.22877V5.86097C4.27257 5.86594 4.27312 5.87073 4.27331 5.87566C4.20258 6.03902 4.16317 6.21892 4.16317 6.40796V6.80032C4.16317 7.54203 4.76612 8.14547 5.50724 8.14547H5.81391C6.02633 9.16405 6.65166 10.0328 7.50603 10.5684V11.6338C7.30452 11.6959 7.08963 11.758 6.86617 11.8226L6.86211 11.8238C4.93434 12.3808 2.29422 13.1437 2.25199 15.7259L2.25195 15.732V18.6289C2.25195 18.8339 2.41813 19 2.62305 19H3.72327H7.06814L16.3772 19C16.5822 19 16.7483 18.8338 16.7483 18.6289V15.732L16.7483 15.7259ZM2.99411 18.2578H3.72327H7.05036L7.0556 18.2578H7.85983L8.44791 15.6788L8.10468 14.3888L7.7049 14.6585C7.52306 14.7812 7.26719 14.715 7.16726 14.5203L6.27065 12.7734C5.57656 12.9893 4.8724 13.2475 4.29643 13.6098C3.42357 14.1588 3.00973 14.8342 2.99411 15.7351V18.2578ZM12.0061 12.5582L11.9322 12.5367C11.6689 12.4607 11.4176 12.388 11.1813 12.3136L10.1641 12.9997L11.3646 13.8093L12.0061 12.5582ZM10.2445 13.9492L9.50041 13.4474L8.75588 13.9496L9.1154 15.3009H9.8849L10.2445 13.9492ZM8.24818 11.7078L9.50033 12.5522L10.752 11.7078V10.9269C10.3602 11.0655 9.93886 11.1412 9.50011 11.1412C9.06133 11.1412 8.6401 11.0652 8.24818 10.9266V11.7078ZM12.5082 5.28696L12.5234 5.29664L12.5234 5.28978C12.5234 3.62267 11.1671 2.26639 9.50011 2.26639C7.83308 2.26639 6.47684 3.62267 6.47684 5.28978V5.58695C7.60675 5.61872 8.24748 5.37201 9.42099 4.92028L9.42755 4.91776C9.61766 4.84458 9.81428 4.7689 10.0303 4.68779C10.0396 4.6843 10.0491 4.68118 10.0586 4.67843C11.0891 4.3836 11.7468 4.80223 12.5082 5.28696ZM13.6866 8.89062C13.852 8.89062 13.9866 8.75607 13.9866 8.59063L13.9866 8.05106C13.8337 8.11173 13.6673 8.14543 13.4931 8.14543H13.1864C13.1324 8.40456 13.0515 8.6539 12.9471 8.89062H13.6866ZM13.4931 7.40324C13.825 7.40324 14.0949 7.13275 14.0949 6.80028L14.095 6.40792C14.095 6.07602 13.825 5.80601 13.4931 5.80601H13.2657L13.2653 7.40324H13.4931ZM4.90536 6.80032C4.90536 7.13278 5.17537 7.40328 5.50724 7.40328H5.73505L5.73468 5.80604H5.50724C5.17533 5.80604 4.90536 6.07605 4.90536 6.40796V6.80032ZM5.5072 5.06382H5.74162C5.85889 3.0923 7.49972 1.5242 9.50015 1.5242C11.5005 1.5242 13.1414 3.09226 13.2586 5.06382H13.4931C13.6669 5.06382 13.833 5.09736 13.9857 5.15774C13.9476 2.71649 11.9502 0.74219 9.50015 0.74219C7.05077 0.74219 5.05398 2.71627 5.01565 5.15733C5.16802 5.09722 5.33371 5.06382 5.5072 5.06382ZM6.49903 7.73559L6.49917 7.7367C6.67823 9.23411 7.95532 10.3991 9.50015 10.3991C10.2705 10.3991 10.9742 10.109 11.5087 9.63285H9.50015C9.29523 9.63285 9.12905 9.46671 9.12905 9.26176C9.12905 9.0568 9.29523 8.89066 9.50015 8.89066H12.1148C12.3741 8.44486 12.5234 7.92756 12.5234 7.3757V6.17235C12.3748 6.08177 12.2361 5.99356 12.1097 5.91307C11.381 5.44924 10.9777 5.1924 10.2767 5.38808C10.0668 5.46701 9.87406 5.54119 9.68762 5.61296C8.50387 6.06867 7.7465 6.36005 6.47687 6.3291V7.3757C6.47687 7.49753 6.48496 7.61747 6.49903 7.73559ZM6.99436 12.5581L7.63658 13.8093L8.8367 12.9998L7.81909 12.3136C7.5827 12.3879 7.33139 12.4607 7.06814 12.5367L6.99436 12.5581ZM9.12612 16.0431L8.6211 18.2578H10.3801L9.87429 16.0431H9.12612ZM11.1414 18.2578H16.0062L16.0062 15.7351C15.9906 14.8342 15.5767 14.1588 14.7039 13.6098C14.128 13.2475 13.4238 12.9894 12.7298 12.7735L11.8342 14.5202C11.7343 14.715 11.4784 14.7812 11.2965 14.6585L10.8958 14.3883L10.5524 15.6788L11.1414 18.2578Z" fill="white"/>
<path d="M14.5406 16.4023H12.6704C12.4655 16.4023 12.2993 16.5685 12.2993 16.7734C12.2993 16.9784 12.4655 17.1445 12.6704 17.1445H14.5406C14.7455 17.1445 14.9117 16.9784 14.9117 16.7734C14.9117 16.5685 14.7456 16.4023 14.5406 16.4023Z" fill="white"/>
<path d="M5.38965 18.2578C5.18473 18.2578 5.01855 18.424 5.01855 18.6289C5.01855 18.8339 5.18473 19 5.38965 19H5.39069C5.59561 19 5.76122 18.8339 5.76122 18.6289C5.76122 18.424 5.59457 18.2578 5.38965 18.2578Z" fill="white"/>
</svg>
