<svg width="19" height="19" viewBox="0 0 19 19" fill="none" xmlns="http://www.w3.org/2000/svg">
<g clip-path="url(#clip0)">
<path d="M19 11.2809C19 10.8051 18.8108 10.3618 18.4846 10.0348C18.8543 9.63029 19.0428 9.08797 18.9913 8.52354C18.8987 7.51732 17.9922 6.72882 16.9266 6.72882H12.0365C12.2787 5.99335 12.6667 4.64516 12.6667 3.56216C12.6667 1.84504 11.2076 0.395508 10.2917 0.395508C9.4699 0.395508 8.88168 0.858633 8.85715 0.877633C8.76293 0.952854 8.70831 1.06685 8.70831 1.18716V3.87169L6.42753 8.81091L6.33331 8.85919V8.70797C6.33331 8.48947 6.15596 8.31213 5.93746 8.31213H1.97915C0.887471 8.31216 0 9.19963 0 10.2913V16.6247C0 17.7164 0.887471 18.6038 1.97915 18.6038H4.35415C5.20993 18.6038 5.94143 18.0576 6.21693 17.2952C6.87563 17.634 7.76228 17.8122 8.3125 17.8122H15.5792C16.4413 17.8122 17.1958 17.2311 17.3731 16.4299C17.4642 16.0167 17.4111 15.601 17.2306 15.24C17.8149 14.9463 18.2083 14.3423 18.2083 13.6559C18.2083 13.3757 18.1442 13.1073 18.0231 12.865C18.6073 12.5705 19 11.9673 19 11.2809ZM17.3304 12.2578C17.1776 12.276 17.0485 12.3797 16.9995 12.5262C16.9512 12.6727 16.9916 12.8333 17.104 12.9394C17.3051 13.1287 17.4167 13.3836 17.4167 13.6559C17.4167 14.1554 17.0391 14.575 16.5395 14.6328C16.3868 14.651 16.2577 14.7547 16.2086 14.9012C16.1604 15.0477 16.2007 15.2083 16.3131 15.3144C16.5736 15.5598 16.6781 15.9042 16.5997 16.2589C16.5024 16.7007 16.0733 17.0205 15.5793 17.0205H8.3125C7.66965 17.0205 6.5914 16.7189 6.21775 16.3444C6.10453 16.232 5.93353 16.1988 5.78628 16.2589C5.63825 16.3199 5.54165 16.4648 5.54165 16.6247C5.54165 17.2794 5.00887 17.8122 4.35415 17.8122H1.97915C1.32443 17.8122 0.791654 17.2794 0.791654 16.6247V10.2913C0.791654 9.6366 1.32443 9.10382 1.97915 9.10382H5.54165V9.49966C5.54165 9.63663 5.6129 9.76407 5.73006 9.83691C5.84565 9.90657 5.99131 9.91369 6.11481 9.85354L6.90646 9.45769C6.98643 9.4181 7.05056 9.3516 7.08856 9.27007L9.46356 4.12422C9.48731 4.07197 9.49996 4.01497 9.49996 3.95797V1.40169C9.66465 1.31066 9.95047 1.18716 10.2917 1.18716C10.7255 1.18716 11.875 2.26541 11.875 3.56216C11.875 4.95551 11.1166 6.96394 11.1095 6.98376C11.0636 7.10488 11.0794 7.24185 11.153 7.34951C11.2274 7.45638 11.3493 7.52051 11.4792 7.52051H16.9266C17.5869 7.52051 18.1474 7.99313 18.2028 8.59638C18.2447 9.04763 18.0278 9.47673 17.6391 9.7166C17.518 9.79101 17.446 9.9256 17.4515 10.0689C17.457 10.2122 17.5394 10.3404 17.666 10.4061C18.0009 10.5764 18.2083 10.912 18.2083 11.2809C18.2083 11.7804 17.8307 12.2 17.3304 12.2578Z" fill="white" stroke="white" stroke-width="0.3"/>
<path d="M5.93735 9.10352C5.71885 9.10352 5.5415 9.28086 5.5415 9.49936V16.6244C5.5415 16.8429 5.71885 17.0202 5.93735 17.0202C6.15585 17.0202 6.3332 16.8429 6.3332 16.6244V9.49936C6.3332 9.28086 6.15585 9.10352 5.93735 9.10352Z" fill="white" stroke="white" stroke-width="0.3"/>
</g>
<defs>
<clipPath id="clip0">
<rect width="19" height="19" fill="white"/>
</clipPath>
</defs>
</svg>
