<svg width="15" height="15" viewBox="0 0 15 15" fill="none" xmlns="http://www.w3.org/2000/svg">
<path d="M7.43803 13.083H0.497977C0.222944 13.083 0 13.306 0 13.581V14.079C0 14.354 0.222944 14.5769 0.497977 14.5769H7.43803C7.71301 14.5769 7.936 14.354 7.936 14.079V13.581C7.936 13.306 7.71306 13.083 7.43803 13.083Z" fill="currentColor"/>
<path d="M0.497977 11.4402H6.50288C6.77786 11.4402 7.00085 11.2173 7.00085 10.9422V10.4443C7.00085 10.1692 6.77786 9.94629 6.50288 9.94629H0.497977C0.222944 9.94629 0 10.1692 0 10.4443V10.9422C0 11.2173 0.222944 11.4402 0.497977 11.4402Z" fill="currentColor"/>
<path d="M0.497977 8.30252H5.56763C5.84262 8.30252 6.06561 8.07958 6.06561 7.80455V7.30657C6.06561 7.03154 5.84262 6.80859 5.56763 6.80859H0.497977C0.222944 6.80859 0 7.03154 0 7.30657V7.80455C0 8.07958 0.222944 8.30252 0.497977 8.30252Z" fill="currentColor"/>
<path d="M0.497977 4.81717H4.63243C4.90741 4.81717 5.1304 4.59423 5.1304 4.3192V3.82122C5.1304 3.54619 4.90741 3.32324 4.63243 3.32324H0.497977C0.222944 3.32324 0 3.54619 0 3.82122V4.3192C0 4.59423 0.222944 4.81717 0.497977 4.81717Z" fill="currentColor"/>
<path d="M0.497976 1.67948H3.69717C3.97215 1.67948 4.19515 1.45653 4.19515 1.1815V0.683523C4.19515 0.408491 3.97215 0.185547 3.69717 0.185547H0.497976C0.222944 0.185547 0 0.408491 0 0.683523V1.1815C0 1.45653 0.222944 1.67948 0.497976 1.67948Z" fill="currentColor"/>
<path d="M14.8541 10.7995L14.5021 10.4474C14.4087 10.354 14.282 10.3015 14.1499 10.3015C14.0179 10.3015 13.8912 10.354 13.7978 10.4474L12.0851 12.1601V0.932547C12.0851 0.657514 11.8621 0.43457 11.5871 0.43457H11.0891C10.8142 0.43457 10.5912 0.657514 10.5912 0.932547V12.16L8.87842 10.4473C8.785 10.3539 8.65836 10.3015 8.5263 10.3015C8.39424 10.3015 8.26755 10.354 8.17418 10.4473L7.82211 10.7995C7.62765 10.9939 7.62765 11.3092 7.82211 11.5037L10.986 14.6676C11.0794 14.761 11.2061 14.8135 11.3381 14.8135C11.4702 14.8135 11.5968 14.761 11.6902 14.6676L14.8541 11.5037C15.0486 11.3092 15.0486 10.994 14.8541 10.7995Z" fill="currentColor"/>
</svg>
